<?xml version="1.0" encoding="UTF-8"?>
<svg id="Layer_1" xmlns="http://www.w3.org/2000/svg" version="1.1" viewBox="0 0 225 90.4">
  <!-- Generator: Adobe Illustrator 29.3.0, SVG Export Plug-In . SVG Version: 2.1.0 Build 146)  -->
  <defs>
    <style>
      .st0 {
        fill: none;
      }

      .st1 {
        mix-blend-mode: multiply;
      }

      .st1, .st2 {
        isolation: isolate;
      }

      .st1, .st3 {
        fill: #231916;
      }
    </style>
  </defs>
  <g class="st2">
    <g id="Layer_2">
      <g id="Layer_1-2">
        <g>
          <g>
            <g>
              <rect class="st0" x="75" y="51.9" width="12.5" height="9.6"/>
              <rect class="st0" x="87.5" y="51.9" width="12.5" height="9.6"/>
              <rect class="st0" x="100" y="51.9" width="12.5" height="9.6"/>
              <rect class="st0" x="112.5" y="51.9" width="12.5" height="9.6"/>
              <rect class="st0" x="125" y="51.9" width="12.5" height="9.6"/>
              <rect class="st0" x="137.5" y="51.9" width="12.5" height="9.6"/>
            </g>
            <g>
              <rect class="st0" y="51.9" width="12.5" height="9.6"/>
              <rect class="st0" x="12.5" y="51.9" width="12.5" height="9.6"/>
              <rect class="st0" x="25" y="51.9" width="12.5" height="9.6"/>
              <rect class="st0" x="37.5" y="51.9" width="12.5" height="9.6"/>
              <rect class="st0" x="50" y="51.9" width="12.5" height="9.6"/>
              <rect class="st0" x="62.5" y="51.9" width="12.5" height="9.6"/>
            </g>
            <g>
              <rect class="st0" y="90.4" width="12.5" height="9.6"/>
              <rect class="st0" x="12.5" y="90.4" width="12.5" height="9.6"/>
              <rect class="st0" x="25" y="90.4" width="12.5" height="9.6"/>
              <rect class="st0" x="37.5" y="90.4" width="12.5" height="9.6"/>
              <rect class="st0" x="50" y="90.4" width="12.5" height="9.6"/>
              <rect class="st0" x="62.5" y="90.4" width="12.5" height="9.6"/>
            </g>
            <g>
              <rect class="st0" x="75" y="90.4" width="12.5" height="9.6"/>
              <rect class="st0" x="87.5" y="90.4" width="12.5" height="9.6"/>
              <rect class="st0" x="100" y="90.4" width="12.5" height="9.6"/>
              <rect class="st0" x="112.5" y="90.4" width="12.5" height="9.6"/>
              <rect class="st0" x="125" y="90.4" width="12.5" height="9.6"/>
              <rect class="st0" x="137.5" y="90.4" width="12.5" height="9.6"/>
            </g>
            <g>
              <rect class="st0" x="150" y="90.4" width="12.5" height="9.6"/>
              <rect class="st0" x="162.5" y="90.4" width="12.5" height="9.6"/>
              <rect class="st0" x="175" y="90.4" width="12.5" height="9.6"/>
              <rect class="st0" x="187.5" y="90.4" width="12.5" height="9.6"/>
              <rect class="st0" x="200" y="90.4" width="12.5" height="9.6"/>
              <rect class="st0" x="212.5" y="90.4" width="12.5" height="9.6"/>
            </g>
            <g>
              <rect class="st0" x="150" y="51.9" width="12.5" height="9.6"/>
              <rect class="st0" x="162.5" y="51.9" width="12.5" height="9.6"/>
              <rect class="st0" x="175" y="51.9" width="12.5" height="9.6"/>
              <rect class="st0" x="187.5" y="51.9" width="12.5" height="9.6"/>
              <rect class="st0" x="200" y="51.9" width="12.5" height="9.6"/>
              <rect class="st0" x="212.5" y="51.9" width="12.5" height="9.6"/>
            </g>
            <rect class="st0" y="61.5" width="37.5" height="28.9"/>
            <rect class="st0" x="37.5" y="61.5" width="37.5" height="28.9"/>
            <rect class="st0" x="75" y="61.5" width="37.5" height="28.9"/>
            <rect class="st0" x="112.5" y="61.5" width="37.5" height="28.9"/>
            <rect class="st0" x="150" y="61.5" width="37.5" height="28.9"/>
            <rect class="st0" x="187.5" y="61.5" width="37.5" height="28.9"/>
            <g>
              <path class="st1" d="M148.8,83.4c-4.4-2.1-8.4-5.3-11.2-9.9,4,0,7.8,0,9.9,0,.3,0,.4-.1.4-.4,0-.8,0-1.9,0-2.7,0-.2-.1-.4-.4-.3-2.9,0-9.1.2-14.6.2,0-.4,0-.7,0-1.1v-4.8c0-.3,0-.6.1-1.1,0-.2-.1-.4-.3-.4-.7,0-1.9,0-2.8,0s-.4.1-.3.4c0,.4,0,.9,0,1.2v6c-5.7,0-10.1,0-14.9-.3-.2,0-.4,0-.4.3,0,.8,0,2.2,0,2.9,0,.2.2.4.4.3,3.4-.2,6.5-.2,10-.3-3,4.3-6.8,8.2-11.4,10.5-.2,0-.2.2,0,.3,1.2,1,1.6,1.6,1.9,1.9.3.3.8.3,1,.1,5.5-4,9.3-8.1,12.1-12.9h1.2v1.5c0,4,0,9.6-.1,13.5,0,.3.1.4.4.4.7,0,2,0,2.8,0,.2,0,.3-.1.3-.4-.1-4-.1-9.6-.2-13.7v-1.4h1.3c3,5.8,7.3,9.8,11.9,12.4.3.2.6.2.9,0,.5-.4.8-1,2-2.1.1-.2.1-.3,0-.4h0Z"/>
              <path class="st1" d="M137.6,67c1.4.5,2.6,1.1,4,1.9.2.1.4,0,.6,0,.4-.5.8-1.1,1.2-1.8.1-.2,0-.4-.1-.5-1.4-.7-2.8-1.3-4.2-1.8-.2,0-.4,0-.6.2-.4.5-.8,1.1-1,1.7-.1.2,0,.3.2.4h0Z"/>
            </g>
            <path class="st3" d="M185.3,77.7c0-.3-.1-.4-.4-.4h-.6v-5.6c0-1,0-2.3,0-3.1,0-.2-.1-.4-.3-.4-.4,0-.9,0-1.4,0h-12.5c0-1.3,0-2.5.1-3.6,0-.5,0-.8.2-1.3,0-.2,0-.4-.3-.4-1.1,0-2.2,0-3.1,0-.2,0-.3.1-.3.4,0,.5.1,1,.1,1.5,0,1.1,0,2.2.1,3.5h-12.2c-.5,0-.9,0-1.3,0-.3,0-.4.1-.4.4,0,.8,0,2.1,0,3.2,0,1.9,0,2.8,0,5.2v3.6c0,.2.1.4.4.4.7,0,1.8,0,2.5,0,.2,0,.4-.1.4-.4v-.3h10.6c0,2.7,0,5.4-.1,8.1,0,.2.1.4.4.4.8,0,2,0,2.8,0,.2,0,.3-.1.3-.4,0-2.7,0-5.4-.1-8.1h14.8c.3,0,.4,0,.4-.4,0-.7,0-1.6,0-2.3h0ZM156.3,71.4h10.6c0,1.7,0,4.2,0,6h-10.7v-6h0ZM170.1,77.4v-6h11v6h-11Z"/>
            <g>
              <path class="st3" d="M215.7,79.3c1.2.9,1.7,1.2,2.1,1.5.4.2.4.5.3.9-.4.9-.8,1.9-1.3,2.9-1.4,2.2-2.7,3.3-6.1,3.6-2.1.2-3.3.1-5,0-4.2-.4-6.7-2.8-6.7-8.7,0-3.1,0-4.9,0-7.3,0-.6,0-1.2-.1-1.9,0-.2.1-.4.3-.4,1.1,0,2.1,0,3.1,0,.2,0,.3.2.3.4,0,.3,0,.5,0,.8,0,.4,0,.7-.1,1.1-.1,3.2,0,4.5,0,6.5,0,4.7,1.4,6,4.6,6.1,1.3,0,1.9.1,3.5,0,2.1-.2,2.9-.9,3.8-2.6.4-.8.9-1.9,1.2-2.9,0-.2.2-.2.3,0h0Z"/>
              <path class="st3" d="M203.5,63.1c2.6,2,6.1,4.2,9.4,5.9.2,0,.2.2.1.4-.5.6-1.1,1.5-1.7,2.1-.3.3-.6.3-.9,0-3.1-1.8-6.5-4.1-9-6-.2-.2-.2-.3,0-.5.4-.6,1.1-1.4,1.6-1.9s.4-.2.6,0Z"/>
              <path class="st3" d="M217,71.3c2,2.7,4.2,5.2,6.9,7.7.2.1.2.3,0,.4-.6.5-1.4,1.2-2.1,1.7-.3.2-.6.1-.9-.1-2.6-2.6-4.6-5.1-6.5-7.8-.1-.2-.1-.4,0-.5.6-.5,1.4-1.1,2-1.5.2-.1.4,0,.5.1h0Z"/>
              <path class="st3" d="M188.5,82.9c-.2,0-.2-.2,0-.3,2.3-3.2,4-7.2,4.6-10.7,0-.2.2-.3.4-.3.8.1,1.9.4,2.7.7.3.1.4.3.2.6,0,.2-.2.5-.3.9-.8,2.8-2.2,6.7-4.1,9.8-.2.4-.5.4-.9.3-.5-.2-1.1-.6-2.6-1.1h0Z"/>
            </g>
            <g>
              <path class="st3" d="M58.1,64c3.9,2.7,10,3.9,15.7,5,.2,0,.2.1,0,.3-.8,1-1.1,1.5-1.4,1.9-.2.2-.5.3-.8.2-2.3-.2-4.3-.6-6.3-1.2-2.8-.9-5.7-2.2-9.5-4.5-1.3.9-2.8,1.8-4.6,2.8-3.1,1.8-7.2,3.4-10.6,4.3-.4,0-.6,0-.9-.3-.2-.4-.5-.8-1.3-1.8-.1-.2,0-.3,0-.3,6.3-1.4,13.3-4.6,17.1-8.2.2-.1.3-.2.5,0,.8.2,1.7.6,2.4,1,.3.2.3.4,0,.5-.1,0-.2.1-.3.2,0,0-.2.1-.2.2h0Z"/>
              <path class="st3" d="M72.2,86.8c0-.2-.1-.4-.4-.4h-.6v-3.7c0-.2-.1-.4-.4-.4h-22.1c-.2,0-.4,0-.4.3v6c0,.2.1.4.4.4.7,0,1.8,0,2.5,0,.2,0,.4-.1.4-.4v-.3h20.2c.2,0,.4-.1.4-.4,0-.5,0-.9,0-1.3h0ZM68,84.5v2h-16.4v-2h16.4Z"/>
              <path class="st3" d="M68.8,71.8h-23.4c-.3,0-.4.1-.3.4,0,.6.1,1.1.1,1.7.4,7.3-1.4,9.4-5.9,12.9-.2.1-.1.2,0,.3,1.4.5,1.8.8,2.2,1.1.3.2.7.1,1.2-.2,2.5-2,3.2-3.1,4.4-5.4.2-.5.5-1.1.6-1.8h18.2v.3c0,.2.1.4.4.4,0,0,2.5,0,2.5,0,.2,0,.4-.1.4-.4v-8.8c0-.2-.1-.4-.4-.4h0ZM65.9,73.8v1.5h-17.7c0-.5,0-1,0-1.5h17.7ZM48.1,77.3h17.8v1.5h-17.9c0-.5,0-1,.1-1.5Z"/>
              <path class="st3" d="M56.9,71.1c-1.2-.8-1.6-1-2.9-1.6-.2-.1-.3-.3-.1-.5.3-.6.7-1.1,1.1-1.6.2-.2.4-.2.6-.2,1.3.6,1.7.8,3.2,1.5.2,0,.2.3.1.6-.4.6-.8,1.2-1.3,1.7-.2.2-.3.2-.6,0Z"/>
            </g>
            <g>
              <path class="st1" d="M36.5,84.7c-4.1-1.5-8-4.4-11.1-7.8,4,0,7.8,0,9.9,0,.3,0,.4,0,.4-.4,0-.7,0-1.8,0-2.5,0-.2-.1-.4-.4-.3-1.7,0-4.4,0-7.4.1,1.3-1.8,2.9-4.2,3.7-5.5.2-.3.4-.6.5-.8,0-.1.2-.2.3-.3.2-.3.2-.4,0-.6-.8-.3-1.8-.7-2.6-.9-.2,0-.4,0-.5.2-1,2.1-3.7,5.9-5.4,7.9-1.2,0-2.4,0-3.6,0h0v-9.1c0-.3,0-.7,0-1.3,0-.2,0-.4-.3-.4-.7,0-1.9,0-2.8,0-.2,0-.3.1-.3.4,0,.6,0,1,0,1.4v9.1h0c-5.7,0-10.2,0-15-.3-.2,0-.4,0-.4.3,0,.7,0,2.1,0,2.8,0,.3.2.4.4.4,3.3-.2,6.5-.3,10-.3-2.8,3.6-6.9,7.1-10.9,8.8-.2,0-.2.2,0,.3,1.2.9,1.6,1.4,2,1.8.3.3.6.3,1,.1,4.4-2.2,9.1-6.8,11.7-11h1.3c0,.4,0,.8,0,1.1,0,2.9,0,6.7-.1,10.5,0,.2.1.4.4.4.7,0,1.9,0,2.6,0,.2,0,.4-.1.4-.4-.1-3.8-.1-7.7-.2-10.6v-1.1h1.3c3.5,4.7,7.8,8.3,12.2,10.4.3.1.6,0,.8,0,.5-.5.8-1,1.9-2.1.2-.1.1-.3,0-.3Z"/>
              <path class="st1" d="M10.3,72.4c.1.2.3.3.6.1.7-.3,1.3-.8,2.1-1.3.2-.2.2-.3,0-.5-1.7-2.1-2.6-3.2-4.5-5-.2-.2-.4-.2-.6,0-.7.4-1.4.9-2,1.3-.2.2-.2.3,0,.5,1.9,1.9,2.8,2.9,4.4,5h0Z"/>
            </g>
            <g>
              <path class="st1" d="M110.7,66.7c0-.2-.1-.4-.4-.4-2,0-5.8.2-9.5.2v-.7c0-.7,0-1.2,0-1.8,0-.1,0-.3.1-.6,0-.2,0-.4-.3-.4-1,0-2.1,0-3.1,0-.3,0-.4.1-.3.4,0,.3,0,.4,0,.7,0,.3,0,1,0,1.8,0,.2,0,.5,0,.7-1.3,0-6.5,0-7.8,0v-.7c0-.7,0-1.4,0-1.9,0-.2,0-.4.1-.6,0-.2,0-.4-.3-.4-.9,0-2.1-.1-3,0-.3,0-.4.1-.3.4,0,.2,0,.4,0,.7,0,.8,0,1.7,0,2.5-3.2,0-6.5,0-9.4-.3-.2,0-.4,0-.4.3,0,.7,0,1.9,0,2.6,0,.2.2.4.4.3,3-.2,6.2-.2,9.3-.2,0,.4,0,.7,0,1.2s.1.4.4.4c.7,0,1.9,0,2.6,0,.2,0,.4-.1.4-.4,0-.5,0-.9,0-1.3h7.8c0,.4,0,.7,0,1.2,0,.3.1.4.4.4.8,0,1.9,0,2.7,0,.2,0,.4-.2.4-.4,0-.5,0-.8,0-1.2,3.7,0,7.5,0,9.4,0,.3,0,.4-.1.4-.4,0-.7,0-1.6,0-2.3h0Z"/>
              <path class="st1" d="M109.8,80.3c-.6-.4-1.1-.6-1.9-1.3-.2-.2-.3-.1-.4,0-.3.7-.5,1.2-.9,1.8-1.1,1.5-2.1,2.4-4.1,3.2-4.6,2-10.6,2.6-16.2,1.9-2.8-.3-4.4-1.5-4.6-3.3-.1-1.4.7-3,2.3-3.9,2.7-1.5,5.9-2.5,9.6-3.1,3.2-.5,7.3-.8,11.4-.8s.3-.1.3-.3c0-.9-.3-1.6-.5-2.3,0-.2-.2-.3-.4-.3-1.9.1-3.3.2-4.7.2h-8.8c-3.4,0-6.7,0-10.3-.2-.2,0-.4,0-.4.3,0,.7,0,2,0,2.8,0,.2.2.3.4.3,3.3-.2,6.9-.2,8.4-.2-1.2.3-2.6.7-3.7,1.1s-2.2.9-3.1,1.4c-4.7,2.6-4.8,6.8-2.8,8.8,1.8,1.8,5,2.6,8.4,2.8,5.6.3,11.3-.4,15.9-2.2,2.3-.9,3.6-1.8,5-3.3.8-.8,1.2-1.5,1.6-2.4.2-.5.1-.8-.3-1.1h0Z"/>
            </g>
          </g>
          <polygon class="st3" points="211.8 35 214.9 27.8 180.2 12.9 194.2 7.3 191.3 0 170 8.5 156.6 2.8 153.5 10.1 159.6 12.7 140.4 20.4 143.3 27.7 151.3 24.5 141.4 44.3 154.1 51 157.8 44 151.9 40.9 158.6 27.5 168.9 51.8 176.2 48.9 163.7 19.5 169.9 17.1 211.8 35"/>
        </g>
      </g>
    </g>
  </g>
</svg>