<?xml version="1.0" encoding="UTF-8"?><svg id="Layer_2" xmlns="http://www.w3.org/2000/svg" viewBox="0 0 1929.45 402.26"><defs><style>.cls-1{fill:none;}.cls-2{fill:#231916;}</style></defs><g id="Layer_1-2"><rect class="cls-1" width="1929.45" height="402.26"/><polygon class="cls-2" points="1848.62 181.9 1859.13 157.37 1741.2 106.86 1788.98 87.74 1779.06 62.96 1706.51 92 1661.26 72.62 1650.72 97.13 1671.48 106.03 1606 132.23 1615.92 157.01 1643.18 146.1 1609.54 213.37 1652.58 236.07 1665.03 212.46 1645.09 201.95 1667.85 156.42 1703 238.71 1727.85 228.95 1685.26 129.25 1706.17 120.88 1848.62 181.9"/><path class="cls-2" d="M88.13,338.22h-16.91l-8.04-18.45c-1.37-2.89-2.99-4.83-4.85-5.82-1.85-.99-4.81-1.49-8.86-1.49h-26.39v25.77h-14.33v-72.16h47.11c6.11,0,11.32.97,15.62,2.89,4.29,1.92,7.52,4.57,9.69,7.94,2.17,3.37,3.25,7.18,3.25,11.44,0,3.78-.77,7.2-2.32,10.26-1.55,3.06-3.69,5.55-6.44,7.47-2.75,1.92-5.84,3.06-9.28,3.4v1.45c3.5.2,6.29,1.12,8.35,2.73,2.06,1.62,4.05,4.48,5.98,8.61l7.42,15.98ZM54.93,302.45c4.95,0,8.71-1.12,11.29-3.35,2.58-2.24,3.87-5.24,3.87-9.02s-1.29-6.87-3.87-9.07c-2.58-2.2-6.34-3.3-11.29-3.3H22.46v24.74h32.47Z"/><path class="cls-2" d="M128.56,327.71h17.32v10.51h-49.58v-10.51h20v-24.74c0-2.54-.53-4.34-1.6-5.41-1.07-1.06-2.83-1.6-5.31-1.6-2.34,0-4.54.45-6.6,1.34v-10.72c3.16-1.24,6.7-1.85,10.62-1.85,5.36,0,9.23,1.1,11.6,3.3,2.37,2.2,3.56,5.67,3.56,10.41v29.27ZM114.64,274.83c-1.44-1.3-2.16-2.99-2.16-5.05s.72-3.74,2.16-5.05c1.44-1.3,3.4-1.96,5.88-1.96s4.33.65,5.77,1.96c1.44,1.31,2.16,2.99,2.16,5.05s-.72,3.75-2.16,5.05c-1.44,1.3-3.37,1.96-5.77,1.96s-4.43-.65-5.88-1.96Z"/><path class="cls-2" d="M167.39,335.85c-5.26-2.4-9.24-5.67-11.96-9.79-2.71-4.12-4.07-8.76-4.07-13.92s1.36-9.81,4.07-13.97c2.71-4.16,6.7-7.43,11.96-9.84,5.26-2.4,11.56-3.61,18.92-3.61,6.66,0,12.52,1,17.57,2.99,5.05,1.99,9.04,4.74,11.96,8.25s4.69,7.49,5.31,11.96h-12.78c-.76-3.64-3.02-6.7-6.8-9.18-3.78-2.47-8.86-3.71-15.26-3.71-4.67,0-8.69.75-12.06,2.27-3.37,1.51-5.91,3.57-7.63,6.18-1.72,2.61-2.58,5.5-2.58,8.66s.86,6.05,2.58,8.66c1.72,2.61,4.26,4.67,7.63,6.18,3.37,1.51,7.39,2.27,12.06,2.27,6.39,0,11.47-1.24,15.26-3.71,3.78-2.47,6.05-5.53,6.8-9.18h12.78c-.62,4.47-2.39,8.44-5.31,11.91-2.92,3.47-6.91,6.2-11.96,8.2-5.05,1.99-10.91,2.99-17.57,2.99-7.35,0-13.66-1.2-18.92-3.61Z"/><path class="cls-2" d="M299.75,316.37h-57.93c.96,4.12,3.4,7.42,7.32,9.9,3.92,2.47,9.14,3.71,15.67,3.71,10.17,0,17.32-2.82,21.44-8.45h12.47c-1.1,2.89-2.97,5.69-5.62,8.4-2.65,2.72-6.36,4.98-11.13,6.8-4.78,1.82-10.6,2.73-17.47,2.73-7.42,0-13.78-1.2-19.07-3.61-5.29-2.4-9.29-5.67-12.01-9.79-2.71-4.12-4.07-8.76-4.07-13.92s1.37-9.81,4.12-13.97c2.75-4.16,6.77-7.43,12.06-9.84,5.29-2.4,11.68-3.61,19.17-3.61s13.88,1.2,19.17,3.61c5.29,2.41,9.29,5.7,12.01,9.9,2.71,4.19,4.07,8.87,4.07,14.02,0,1.1-.07,2.47-.21,4.12ZM248.94,298.13c-3.92,2.54-6.32,5.94-7.22,10.21h45.87c-.89-4.26-3.3-7.66-7.21-10.21-3.92-2.54-9.14-3.81-15.67-3.81s-11.85,1.27-15.77,3.81Z"/><path class="cls-2" d="M396.02,311.32v-9.69h51.64v36.59h-12.68l2.58-17.42h-1.45c-2.27,5.02-6.3,9.38-12.11,13.09-5.81,3.71-13.63,5.57-23.45,5.57-8.93,0-16.7-1.63-23.3-4.9-6.6-3.26-11.67-7.71-15.2-13.35-3.54-5.64-5.31-11.99-5.31-19.07s1.8-13.45,5.41-19.12c3.61-5.67,8.9-10.12,15.87-13.35,6.97-3.23,15.31-4.84,25-4.84s17.2,1.32,23.76,3.97c6.56,2.65,11.72,6.2,15.46,10.67,3.74,4.47,6.24,9.52,7.47,15.15h-14.33c-1.72-5.36-5.27-9.71-10.67-13.04-5.4-3.33-12.63-5-21.7-5-6.74,0-12.53,1.12-17.37,3.35-4.85,2.24-8.5,5.27-10.98,9.12-2.47,3.85-3.71,8.21-3.71,13.09s1.24,9.5,3.71,13.45c2.47,3.95,6.15,7.04,11.03,9.28,4.88,2.24,10.72,3.35,17.52,3.35,8.38,0,15.15-1.65,20.31-4.95,5.15-3.3,8.62-7.28,10.41-11.95h-37.93Z"/><path class="cls-2" d="M463.89,338.22v-52.16h12.68l-1.75,14.64h1.55c1.37-4.88,4.05-8.76,8.04-11.65,3.99-2.89,9.11-4.33,15.36-4.33,8.52,0,15.05,2.28,19.59,6.85,4.53,4.57,6.8,11.19,6.8,19.84v1.96h-12.89v-.93c0-5.15-1.6-9.23-4.79-12.22-3.2-2.99-7.72-4.48-13.55-4.48s-10.36,1.64-13.55,4.9c-3.2,3.26-4.79,8.02-4.79,14.28v23.3h-12.68Z"/><path class="cls-2" d="M541.67,335.23c-3.92-2.82-5.88-6.63-5.88-11.44s1.96-8.62,5.88-11.44c3.92-2.82,10.03-4.23,18.35-4.23,6.32,0,11.58.6,15.77,1.8,4.19,1.2,8.28,2.94,12.26,5.2v-4.53c0-4.81-1.75-8.64-5.26-11.49-3.5-2.85-8.66-4.28-15.46-4.28-6.18,0-10.94,1.02-14.28,3.04-3.33,2.03-5.38,4.52-6.13,7.47h-12.68c.76-5.98,3.88-10.91,9.38-14.79,5.5-3.88,13.44-5.82,23.81-5.82,11,0,19.28,2.35,24.84,7.06,5.57,4.71,8.35,11.12,8.35,19.22v13.4c0,3.02,1.37,4.53,4.12,4.53,1.1,0,2.16-.13,3.19-.41v10c-1.85.62-3.92.93-6.18.93-3.78,0-6.68-.9-8.71-2.68-2.03-1.79-3.04-4.19-3.04-7.22v-.51h-1.55v.1c0,1.65-1.1,3.26-3.3,4.84-2.2,1.58-5.46,2.89-9.79,3.92-4.33,1.03-9.45,1.55-15.36,1.55-8.32,0-14.43-1.41-18.35-4.23ZM588.05,324.72v-3.3c-3.64-1.65-7.25-2.92-10.82-3.81-3.57-.89-7.8-1.34-12.68-1.34-5.98,0-10.14.62-12.47,1.85-2.34,1.24-3.5,2.96-3.5,5.15s1.17,4.02,3.5,5.26c2.33,1.24,6.49,1.86,12.47,1.86,8.86,0,16.7-1.89,23.5-5.67Z"/><path class="cls-2" d="M617.28,338.22v-52.16h12.68l-1.96,16.08h1.54c1.37-5.36,4.28-9.6,8.71-12.73,4.43-3.13,10.22-4.69,17.37-4.69,9.14,0,16.3,2.63,21.49,7.89,5.19,5.26,7.78,12.52,7.78,21.8v23.81h-12.68v-21.03c0-7.01-1.84-12.38-5.51-16.13-3.68-3.74-8.88-5.62-15.62-5.62s-11.85,1.89-15.56,5.67c-3.71,3.78-5.57,9.14-5.57,16.08v21.03h-12.68Z"/><path class="cls-2" d="M703.1,335.23c-3.92-2.82-5.88-6.63-5.88-11.44s1.96-8.62,5.88-11.44c3.92-2.82,10.03-4.23,18.35-4.23,6.32,0,11.58.6,15.77,1.8,4.19,1.2,8.28,2.94,12.26,5.2v-4.53c0-4.81-1.75-8.64-5.26-11.49-3.5-2.85-8.66-4.28-15.46-4.28-6.18,0-10.94,1.02-14.28,3.04-3.33,2.03-5.38,4.52-6.13,7.47h-12.68c.76-5.98,3.88-10.91,9.38-14.79,5.5-3.88,13.44-5.82,23.81-5.82,11,0,19.28,2.35,24.84,7.06,5.57,4.71,8.35,11.12,8.35,19.22v13.4c0,3.02,1.37,4.53,4.12,4.53,1.1,0,2.16-.13,3.19-.41v10c-1.85.62-3.92.93-6.18.93-3.78,0-6.68-.9-8.71-2.68-2.03-1.79-3.04-4.19-3.04-7.22v-.51h-1.55v.1c0,1.65-1.1,3.26-3.3,4.84-2.2,1.58-5.46,2.89-9.79,3.92-4.33,1.03-9.45,1.55-15.36,1.55-8.32,0-14.43-1.41-18.35-4.23ZM749.48,324.72v-3.3c-3.64-1.65-7.25-2.92-10.82-3.81-3.57-.89-7.8-1.34-12.68-1.34-5.98,0-10.14.62-12.47,1.85-2.34,1.24-3.5,2.96-3.5,5.15s1.17,4.02,3.5,5.26c2.33,1.24,6.49,1.86,12.47,1.86,8.86,0,16.7-1.89,23.5-5.67Z"/><path class="cls-2" d="M778.71,338.22v-52.16h12.68l-1.75,14.64h1.55c1.37-4.88,4.05-8.76,8.04-11.65,3.99-2.89,9.11-4.33,15.36-4.33,8.52,0,15.05,2.28,19.59,6.85,4.53,4.57,6.8,11.19,6.8,19.84v1.96h-12.89v-.93c0-5.15-1.6-9.23-4.79-12.22-3.2-2.99-7.72-4.48-13.55-4.48s-10.36,1.64-13.55,4.9c-3.2,3.26-4.79,8.02-4.79,14.28v23.3h-12.68Z"/><path class="cls-2" d="M898.64,286.07h14.84l-28.65,54.32c-3.78,7.22-7.75,12.34-11.91,15.36-4.16,3.02-9.29,4.53-15.41,4.53-1.85,0-3.5-.12-4.95-.36-1.45-.24-2.99-.67-4.64-1.29v-10.61c2.61,1.03,5.29,1.54,8.04,1.54,3.71,0,6.7-.72,8.96-2.16,2.27-1.44,4.4-3.88,6.39-7.32l.51-.93-28.04-53.08h14.85l16.8,34.43c1.58,3.71,2.37,6.77,2.37,9.17v.21h1.55v-.21c0-2.61.75-5.67,2.27-9.17l17.01-34.43Z"/><path class="cls-2" d="M1046.12,338.22h-15.15l-6.39-13.3h-45.46l-6.39,13.3h-15.15l35.87-72.16h16.8l35.87,72.16ZM984.59,313.69h34.53l-12.88-26.6c-2.41-5.15-3.61-9.24-3.61-12.26v-.21h-1.54v.21c0,3.02-1.21,7.11-3.61,12.26l-12.89,26.6Z"/><path class="cls-2" d="M1136.05,338.22h-16.9l-8.04-18.45c-1.37-2.89-2.99-4.83-4.84-5.82-1.85-.99-4.81-1.49-8.86-1.49h-26.39v25.77h-14.33v-72.16h47.11c6.12,0,11.32.97,15.62,2.89,4.29,1.92,7.53,4.57,9.69,7.94,2.16,3.37,3.25,7.18,3.25,11.44,0,3.78-.78,7.2-2.32,10.26-1.55,3.06-3.69,5.55-6.44,7.47-2.75,1.92-5.84,3.06-9.28,3.4v1.45c3.5.2,6.29,1.12,8.35,2.73,2.06,1.62,4.05,4.48,5.98,8.61l7.42,15.98ZM1102.86,302.45c4.95,0,8.71-1.12,11.29-3.35,2.58-2.24,3.87-5.24,3.87-9.02s-1.29-6.87-3.87-9.07c-2.58-2.2-6.34-3.3-11.29-3.3h-32.47v24.74h32.47Z"/><path class="cls-2" d="M1186.61,338.22h-14.33v-60.1h-31.23v-12.06h76.79v12.06h-31.23v60.1Z"/><path class="cls-2" d="M1236.5,332.24c-6.74-4.81-10.1-11.34-10.1-19.58v-1.45h14.43v1.14c0,10.72,9.28,16.08,27.83,16.08,10.52,0,17.76-.98,21.75-2.94,3.98-1.96,5.98-4.69,5.98-8.2,0-3.02-1.29-5.31-3.87-6.85-2.58-1.55-5.79-2.58-9.63-3.09-3.85-.51-9.14-.94-15.87-1.29-8.59-.41-15.55-1.05-20.87-1.91-5.33-.86-9.86-2.69-13.61-5.51-3.75-2.82-5.62-7.01-5.62-12.57,0-14.16,13.91-21.23,41.74-21.23,14.43,0,25,2.33,31.7,7.01,6.7,4.67,10.05,10.96,10.05,18.86v.82h-14.53v-.82c0-4.47-2.13-8.06-6.39-10.77-4.26-2.71-11.2-4.07-20.82-4.07-10.17,0-17.26.98-21.28,2.94-4.02,1.96-6.03,4.59-6.03,7.89,0,2.61,1.2,4.59,3.61,5.93,2.41,1.34,5.41,2.21,9.02,2.63,3.61.41,8.64.76,15.1,1.03,8.8.34,15.98.96,21.54,1.85,5.57.89,10.34,2.83,14.33,5.82,3.98,2.99,5.98,7.44,5.98,13.35,0,6.87-3.23,12.29-9.69,16.24-6.46,3.95-17.32,5.93-32.57,5.93s-25.42-2.4-32.16-7.22Z"/><path class="cls-2" d="M1390.37,334.62c-7.04-3.23-12.37-7.68-15.98-13.35-3.61-5.67-5.41-12.04-5.41-19.12s1.8-13.45,5.41-19.12c3.61-5.67,8.93-10.12,15.98-13.35,7.04-3.23,15.52-4.84,25.41-4.84,9.21,0,17.14,1.3,23.81,3.92s11.87,6.15,15.62,10.61c3.74,4.47,6.17,9.55,7.27,15.26h-14.33c-1.3-5.09-4.64-9.35-10-12.78-5.36-3.43-12.82-5.15-22.37-5.15-6.87,0-12.75,1.12-17.63,3.35-4.88,2.24-8.57,5.28-11.08,9.12-2.51,3.85-3.77,8.18-3.77,12.99s1.26,9.14,3.77,12.99c2.51,3.85,6.2,6.89,11.08,9.12,4.88,2.24,10.75,3.35,17.63,3.35,9.55,0,17.01-1.72,22.37-5.15,5.36-3.43,8.69-7.7,10-12.78h14.33c-1.58,8.93-6.29,16.13-14.12,21.59-7.83,5.46-18.69,8.2-32.57,8.2-9.9,0-18.37-1.61-25.41-4.84Z"/><path class="cls-2" d="M1546.94,266.07v11.65h-55.97v18.56h48.76v10.61h-48.76v19.69h55.97v11.65h-70.3v-72.16h70.3Z"/><path class="cls-2" d="M1562.85,338.22v-72.16h22.37l46.8,63.6h1.54c-.75-2.89-1.3-5.53-1.65-7.94-.34-2.4-.51-5.36-.51-8.87v-46.8h13.81v72.16h-22.37l-46.9-63.6h-1.44c.75,2.89,1.3,5.53,1.65,7.94.34,2.4.51,5.36.51,8.86v46.8h-13.81Z"/><path class="cls-2" d="M1701.33,338.22h-14.33v-60.1h-31.23v-12.06h76.79v12.06h-31.23v60.1Z"/><path class="cls-2" d="M1813.47,266.07v11.65h-55.97v18.56h48.76v10.61h-48.76v19.69h55.97v11.65h-70.3v-72.16h70.3Z"/><path class="cls-2" d="M1908.75,338.22h-16.9l-8.04-18.45c-1.37-2.89-2.99-4.83-4.84-5.82-1.85-.99-4.81-1.49-8.86-1.49h-26.39v25.77h-14.33v-72.16h47.11c6.12,0,11.32.97,15.62,2.89,4.29,1.92,7.53,4.57,9.69,7.94s3.25,7.18,3.25,11.44c0,3.78-.78,7.2-2.32,10.26-1.55,3.06-3.69,5.55-6.44,7.47-2.75,1.92-5.84,3.06-9.28,3.4v1.45c3.5.2,6.29,1.12,8.35,2.73,2.06,1.62,4.05,4.48,5.98,8.61l7.42,15.98ZM1875.56,302.45c4.95,0,8.71-1.12,11.29-3.35,2.58-2.24,3.87-5.24,3.87-9.02s-1.29-6.87-3.87-9.07c-2.58-2.2-6.34-3.3-11.29-3.3h-32.47v24.74h32.47Z"/></g></svg>