<?xml version="1.0" encoding="UTF-8"?>
<svg xmlns="http://www.w3.org/2000/svg" viewBox="0 0 762.45 402.26">
  <defs>
    <style>
      .cls-1 {
        fill: none;
      }

      .cls-2 {
        mix-blend-mode: multiply;
      }

      .cls-2, .cls-3 {
        fill: #231916;
      }

      .cls-4 {
        isolation: isolate;
      }
    </style>
  </defs>
  <g class="cls-4">
    <g id="Layer_1" data-name="Layer 1">
      <g>
        <g>
          <g>
            <rect class="cls-1" x="254.15" y="239.2" width="42.36" height="32.61"/>
            <rect class="cls-1" x="296.51" y="239.2" width="42.36" height="32.61"/>
            <rect class="cls-1" x="338.87" y="239.2" width="42.36" height="32.61"/>
            <rect class="cls-1" x="381.22" y="239.2" width="42.36" height="32.61"/>
            <rect class="cls-1" x="423.58" y="239.2" width="42.36" height="32.61"/>
            <rect class="cls-1" x="465.94" y="239.2" width="42.36" height="32.61"/>
          </g>
          <g>
            <rect class="cls-1" y="239.2" width="42.36" height="32.61"/>
            <rect class="cls-1" x="42.36" y="239.2" width="42.36" height="32.61"/>
            <rect class="cls-1" x="84.72" y="239.2" width="42.36" height="32.61"/>
            <rect class="cls-1" x="127.08" y="239.2" width="42.36" height="32.61"/>
            <rect class="cls-1" x="169.43" y="239.2" width="42.36" height="32.61"/>
            <rect class="cls-1" x="211.79" y="239.2" width="42.36" height="32.61"/>
          </g>
          <g>
            <rect class="cls-1" y="369.65" width="42.36" height="32.61"/>
            <rect class="cls-1" x="42.36" y="369.65" width="42.36" height="32.61"/>
            <rect class="cls-1" x="84.72" y="369.65" width="42.36" height="32.61"/>
            <rect class="cls-1" x="127.08" y="369.65" width="42.36" height="32.61"/>
            <rect class="cls-1" x="169.43" y="369.65" width="42.36" height="32.61"/>
            <rect class="cls-1" x="211.79" y="369.65" width="42.36" height="32.61"/>
          </g>
          <g>
            <rect class="cls-1" x="254.15" y="369.65" width="42.36" height="32.61"/>
            <rect class="cls-1" x="296.51" y="369.65" width="42.36" height="32.61"/>
            <rect class="cls-1" x="338.87" y="369.65" width="42.36" height="32.61"/>
            <rect class="cls-1" x="381.23" y="369.65" width="42.36" height="32.61"/>
            <rect class="cls-1" x="423.59" y="369.65" width="42.36" height="32.61"/>
            <rect class="cls-1" x="465.94" y="369.65" width="42.36" height="32.61"/>
          </g>
          <g>
            <rect class="cls-1" x="508.3" y="369.65" width="42.36" height="32.61"/>
            <rect class="cls-1" x="550.66" y="369.65" width="42.36" height="32.61"/>
            <rect class="cls-1" x="593.02" y="369.65" width="42.36" height="32.61"/>
            <rect class="cls-1" x="635.38" y="369.65" width="42.36" height="32.61"/>
            <rect class="cls-1" x="677.74" y="369.65" width="42.36" height="32.61"/>
            <rect class="cls-1" x="720.1" y="369.65" width="42.36" height="32.61"/>
          </g>
          <g>
            <rect class="cls-1" x="508.3" y="239.2" width="42.36" height="32.61"/>
            <rect class="cls-1" x="550.66" y="239.2" width="42.36" height="32.61"/>
            <rect class="cls-1" x="593.02" y="239.2" width="42.36" height="32.61"/>
            <rect class="cls-1" x="635.38" y="239.2" width="42.36" height="32.61"/>
            <rect class="cls-1" x="677.73" y="239.2" width="42.36" height="32.61"/>
            <rect class="cls-1" x="720.09" y="239.2" width="42.36" height="32.61"/>
          </g>
          <rect class="cls-1" y="271.81" width="127.07" height="97.84"/>
          <rect class="cls-1" x="127.07" y="271.81" width="127.07" height="97.84"/>
          <rect class="cls-1" x="254.15" y="271.83" width="127.07" height="97.84"/>
          <rect class="cls-1" x="381.22" y="271.81" width="127.07" height="97.84"/>
          <rect class="cls-1" x="508.3" y="271.81" width="127.07" height="97.84"/>
          <rect class="cls-1" x="635.37" y="271.81" width="127.07" height="97.84"/>
          <g>
            <path class="cls-2" d="M504.47,346.04c-15.07-7.21-28.57-17.84-38.12-33.45,13.64.06,26.41.1,33.62.28.9,0,1.35-.45,1.35-1.24.11-2.59.11-6.41,0-9,0-.79-.45-1.24-1.35-1.12-10,.34-30.87.56-49.63.67.02-1.5.04-2.32.04-3.82v-16.42c0-1.01.11-2.14.34-3.71.11-.79-.34-1.24-1.12-1.35-2.36-.22-6.52-.22-9.56-.22-.9,0-1.21.37-1.12,1.24.15,1.52.22,2.92.22,4.05v16.42c0,1.5.01,2.32.03,3.82-19.2,0-34.24.22-50.53-.9-.79-.11-1.24.34-1.24,1.12-.11,2.59,0,7.31.22,9.9.11.79.56,1.24,1.46,1.12,11.41-.71,21.93-.86,33.77-.89-10.1,14.65-23.14,27.84-38.61,35.53-.67.34-.67.67-.11,1.12,3.94,3.37,5.4,5.29,6.52,6.52,1.01,1.01,2.56,1.13,3.49.45,18.69-13.6,31.48-27.44,40.99-43.63h4.18c.02,1.46.03,3.6.03,5.06,0,13.61-.11,32.5-.34,45.88,0,.9.34,1.35,1.24,1.35,2.47.23,6.63.23,9.33,0,.79,0,1.12-.45,1.12-1.24-.34-13.49-.45-32.61-.56-46.33-.01-1.35,0-3.37,0-4.72h4.49c10.28,19.79,24.72,33.22,40.37,42.17,1.01.56,2.02.56,2.92-.23,1.69-1.46,2.7-3.37,6.75-7.2.45-.56.45-.9-.22-1.24Z"/>
            <path class="cls-2" d="M466.26,290.5c4.57,1.78,8.85,3.75,13.51,6.53.8.43,1.4.32,1.94-.29,1.45-1.71,2.82-3.76,4.07-6,.43-.8.23-1.34-.48-1.82-4.89-2.51-9.64-4.58-14.24-6.21-.68-.24-1.37-.07-1.86.63-1.3,1.74-2.57,3.73-3.5,5.64-.39.64-.19,1.18.55,1.51Z"/>
          </g>
          <path class="cls-3" d="M628.07,326.74c0-.9-.45-1.24-1.35-1.24h-1.92c0-7.46,0-12.17,0-18.81,0-3.26.23-7.65.23-10.35.11-.79-.34-1.24-1.12-1.35-1.32-.06-2.96-.09-4.6-.08h-42.4c.02-4.41.23-8.51.33-12.07.11-1.57.22-2.81.56-4.5.11-.79-.22-1.24-1.01-1.35-3.6-.34-7.53-.34-10.68-.23-.79,0-1.12.45-1.12,1.24.22,1.69.34,3.26.34,4.95.11,3.57.22,7.56.32,11.96,0,0-41.31,0-41.31,0-1.59,0-3.19.03-4.44.08-.9,0-1.24.45-1.24,1.24.11,2.7.15,7.05.21,10.68.12,6.52-.1,9.61-.1,17.6v12.26c0,.79.45,1.24,1.24,1.24,2.36.11,6.07.11,8.43,0,.79,0,1.24-.45,1.24-1.24v-.93h36.1c-.01,9.06-.12,18.37-.33,27.4,0,.79.45,1.24,1.24,1.35,2.59.22,6.63.22,9.33,0,.79,0,1.12-.45,1.12-1.24-.11-9.13-.3-18.36-.42-27.51h50.03c.9,0,1.35-.34,1.35-1.24.11-2.36.11-5.51,0-7.87ZM529.66,305.26h36.1c.11,5.59.11,14.12.11,20.24h-36.21v-20.24ZM576.67,325.5v-20.24h37.22s0,11.96,0,20.24h-37.22Z"/>
          <g>
            <path class="cls-3" d="M730.99,332.12c4.12,3.17,5.62,4.07,7.09,5.07,1.17.8,1.47,1.82.99,3.09-1.19,2.93-2.76,6.35-4.54,9.7-4.9,7.47-9.22,11.23-20.84,12.25-6.97.61-11.26.43-16.91-.07-14.31-1.26-22.86-9.62-22.83-29.45.01-10.44,0-16.47-.23-24.68-.11-2.02-.11-4.16-.34-6.52,0-.79.34-1.24,1.12-1.24,3.6,0,6.97,0,10.57.34.79.11,1.12.56,1.01,1.35-.11.9-.22,1.8-.22,2.7-.23,1.24-.23,2.47-.34,3.82-.45,10.91-.18,15.1-.23,22.05-.11,15.94,4.73,20.22,15.66,20.76,4.3.21,6.34.45,11.93-.19,7.27-.83,9.93-3.14,12.86-8.9,1.41-2.78,3.06-6.61,4.21-9.79.19-.65.57-.77,1.02-.29Z"/>
            <path class="cls-3" d="M689.8,277.33c8.66,6.63,20.8,14.39,31.71,19.9.67.34.79.79.34,1.35-1.57,2.02-3.71,5.17-5.62,7.2-1.01.9-2.02,1.01-3.04.34-10.68-5.96-22.04-13.72-30.59-20.47-.67-.56-.79-1.12-.23-1.8,1.46-1.91,3.82-4.72,5.51-6.41.56-.56,1.24-.67,1.91-.11Z"/>
            <path class="cls-3" d="M735.53,305.02c6.78,9,14.14,17.6,23.21,25.99.56.45.54.92-.04,1.39-2.07,1.6-4.74,4.13-7.17,5.69-1.14.59-2.09.45-2.96-.39-8.7-8.82-15.46-17.31-21.89-26.28-.47-.59-.4-1.29.19-1.77,1.85-1.55,4.73-3.67,6.85-5.05.72-.39,1.32-.29,1.82.41Z"/>
            <path class="cls-3" d="M639,344.15c-.56-.13-.66-.58-.31-1.02,7.68-10.73,13.53-24.42,15.61-36.18.13-.78.59-1.11,1.37-.98,2.58.4,6.49,1.51,9.28,2.36,1.14.36,1.24,1.13.74,2.16-.32.65-.7,1.63-1.09,3.24-2.59,9.39-7.52,22.65-13.96,33.18-.7,1.22-1.72,1.53-2.95,1.05-1.55-.83-3.55-2-8.68-3.81Z"/>
          </g>
          <g>
            <path class="cls-3" d="M196.79,280.36c13.28,8.97,34.06,13.32,53.38,16.94.67.11.79.45.34,1.01-2.81,3.26-3.6,4.95-4.72,6.41-.79.79-1.77.89-2.81.79-7.66-.76-14.44-2.07-21.43-4.23-9.44-2.92-19.28-7.51-32.25-15.35-4.59,3.24-9.5,6.18-15.54,9.61-10.57,5.99-24.32,11.41-35.99,14.51-1.24.34-2.14,0-2.92-1.01-.67-1.24-1.57-2.81-4.39-6.07-.45-.56-.34-.9.34-1.01,21.48-4.72,45.17-15.61,58.11-27.65.56-.45,1.12-.56,1.8-.34,2.59.79,5.81,2.04,8.13,3.24,1.04.54.88,1.21-.11,1.8-.45.27-.76.45-1.12.67-.34.21-.57.45-.79.67Z"/>
            <path class="cls-3" d="M244.82,357.68c0-.79-.45-1.24-1.24-1.24h-2.05v-12.37c0-.79-.45-1.24-1.24-1.24h-74.87c-.67,0-1.24.31-1.24,1.01v20.27c0,.79.45,1.24,1.24,1.24,2.47.11,6.07.11,8.43,0,.79,0,1.24-.45,1.24-1.24v-.93h68.49c.79,0,1.24-.45,1.24-1.24.04-1.66.04-2.93,0-4.27ZM230.62,349.58v6.86h-55.53v-6.86h55.53Z"/>
            <path class="cls-3" d="M233.04,306.73h-79.42c-.91,0-1.25.49-1.16,1.26.26,2.08.37,3.68.48,5.91,1.24,24.76-4.78,31.93-19.94,43.81-.59.47-.48.86.23,1.1,4.77,1.59,6.14,2.69,7.5,3.79,1.07.86,2.38.48,3.97-.83,8.33-6.85,10.88-10.55,14.76-18.47.83-1.69,1.52-3.83,2.07-6.28h61.82v.94c0,.79.45,1.24,1.24,1.24,0,.11,8.43.11,8.43,0,.79,0,1.24-.45,1.24-1.24v-29.99c0-.79-.45-1.24-1.24-1.24ZM223.36,313.47v5.02h-59.94c.03-1.66.04-3.34.02-5.02h59.92ZM163.13,325.24h60.23v5.02h-60.7c.19-1.61.35-3.29.47-5.02Z"/>
            <path class="cls-3" d="M192.82,304.43c-4.22-2.71-5.47-3.36-9.93-5.4-.72-.37-.89-.92-.46-1.54,1.04-1.85,2.42-3.77,3.82-5.43.53-.67,1.23-.8,1.89-.53,4.5,1.89,5.81,2.53,10.67,5.12.61.33.85,1.07.37,1.85-1.38,2.17-2.86,4.14-4.41,5.75-.58.58-1.18.67-1.96.18Z"/>
          </g>
          <g>
            <path class="cls-2" d="M123.68,350.31c-13.8-5.23-27.17-14.95-37.69-26.53,13.57.03,26.26.12,33.44.21.9,0,1.35-.34,1.35-1.24.11-2.47.11-6.07,0-8.55,0-.79-.45-1.24-1.24-1.12-5.68.19-14.77.34-24.98.46,4.37-6.05,9.94-14.36,12.55-18.56.62-1.05,1.21-1.92,1.77-2.68.35-.49.57-.75.95-1.18.85-.95.82-1.51-.22-2.02-2.65-1.1-6.21-2.37-8.72-3.03-.69-.19-1.24.07-1.54.64-3.49,7.17-12.51,20.05-18.21,26.95-4.05.03-8.12.06-12.1.09h-.02c.01-.82.02-1.65.02-2.47v-28.45c0-1.01.11-2.47.22-4.39.11-.79-.22-1.24-1.01-1.35-2.47-.23-6.3-.34-9.33-.23-.79,0-1.12.45-1.12,1.24.11,1.91.22,3.49.22,4.72v28.45c0,.82.01,1.65.03,2.47h-.03c-19.45,0-34.64.22-50.94-.9-.79-.11-1.24.34-1.24,1.12-.11,2.47,0,6.97.22,9.45.11.9.56,1.24,1.35,1.24,11.37-.72,22.01-.86,33.96-.89-9.53,12.22-23.35,23.94-36.89,29.68-.67.34-.79.67-.22,1.12,4.05,3.15,5.51,4.84,6.63,6.07,1.01.9,2.14,1.12,3.37.45,14.92-7.35,30.72-22.95,39.57-37.33h4.49c.03,1.27.04,2.55.02,3.82-.11,9.78-.22,22.6-.45,35.65,0,.79.45,1.24,1.24,1.35,2.47.11,6.41.11,9,0,.79,0,1.24-.45,1.24-1.35-.34-13.04-.45-25.98-.56-35.76-.01-1.24,0-2.47,0-3.71h4.44c11.86,16.06,26.28,28.16,41.42,35.2,1.01.45,1.91.34,2.81-.34,1.69-1.57,2.7-3.49,6.41-7.2.56-.45.45-.9-.22-1.12Z"/>
            <path class="cls-2" d="M34.8,308.64c.52.66,1.12.9,1.91.45,2.25-1.12,4.5-2.64,6.94-4.43.68-.5.73-1.16.22-1.8-5.66-7.22-8.7-10.67-15.19-16.89-.61-.58-1.24-.67-1.91-.34-2.25,1.35-4.72,2.92-6.63,4.5-.67.56-.67,1.12-.11,1.69,6.42,6.47,9.44,10,14.78,16.82Z"/>
          </g>
          <g>
            <path class="cls-2" d="M375.15,289.47c-.11-.79-.45-1.24-1.35-1.24-6.7.33-19.62.56-32.11.67,0-.89,0-1.69,0-2.36.04-2.43.12-4.15.28-6.18.04-.48.25-1.19.45-1.91.2-.72-.22-1.24-1.01-1.35-3.37-.34-7.2-.34-10.35-.23-.9,0-1.24.45-1.12,1.24.11.9.17,1.44.22,2.47.05.98.14,3.24.22,5.96.02.75.04,1.54.06,2.37-4.33.11-22.1.11-26.26.11v-2.36c0-2.47.09-4.9.22-6.41.06-.73.24-1.29.45-1.91.18-.54.02-1.25-1.01-1.35-3.14-.32-6.97-.45-10.12-.34-.9.11-1.24.45-1.12,1.35.11.79.17,1.52.22,2.47.14,2.57.22,5.69.27,8.55-10.7,0-21.95-.23-31.98-.9-.79,0-1.24.34-1.24,1.12-.11,2.36,0,6.3.22,8.66.11.79.56,1.24,1.35,1.12,10.12-.56,21.13-.78,31.68-.79-.03,1.37-.08,2.52-.08,4.16,0,.79.45,1.24,1.24,1.35,2.47.22,6.3.22,8.77,0,.79,0,1.24-.45,1.24-1.24-.07-1.74-.1-2.96-.11-4.27h26.3c0,1.3-.03,2.4-.11,3.94,0,.9.45,1.35,1.24,1.35,2.59.23,6.41.23,9,.11.79-.11,1.24-.56,1.24-1.35-.07-1.65-.09-2.79-.1-4.05,12.46,0,25.35.11,32.04.22.9,0,1.24-.45,1.35-1.24.11-2.25.11-5.51,0-7.76Z"/>
            <path class="cls-2" d="M372.02,335.41c-1.92-1.3-3.83-2.1-6.3-4.31-.62-.59-1.13-.4-1.43.32-.95,2.27-1.66,3.95-3.17,6.05-3.57,4.97-7.23,8.03-13.96,11.01-15.48,6.88-36.05,8.65-54.95,6.4-9.31-1.11-15.09-5.12-15.67-11.33-.46-4.88,2.25-10.21,7.73-13.27,9.19-5.15,20.1-8.52,32.41-10.57,10.96-1.83,24.65-2.78,38.57-2.78.65,0,1.12-.45,1.05-1.01-.35-2.95-.9-5.42-1.67-7.73-.27-.79-.53-1.17-1.33-1.12-6.32.44-11.19.62-15.99.67h-29.91c-11.7,0-22.6.23-34.97-.67-.79,0-1.24.34-1.24,1.12-.11,2.47,0,6.86.22,9.45.11.79.56,1.12,1.35,1.12,11.06-.71,23.28-.8,28.38-.79-4.11,1.05-8.71,2.45-12.5,3.83-3.74,1.36-7.42,2.96-10.58,4.72-16.05,8.94-16.16,23.11-9.65,29.99,5.95,6.28,17.07,8.8,28.45,9.48,19.09,1.14,38.47-1.38,53.92-7.63,7.65-3.1,12.12-6.14,16.92-11.22,2.56-2.71,3.98-5,5.25-8.05.74-1.8.39-2.73-.93-3.69Z"/>
          </g>
        </g>
        <polygon class="cls-3" points="717.91 182.02 728.39 157.54 610.69 107.12 658.37 88.04 648.47 63.31 576.06 92.29 530.89 72.94 520.37 97.41 541.09 106.29 475.73 132.45 485.63 157.18 512.84 146.29 479.27 213.43 522.23 236.09 534.65 212.53 514.75 202.03 537.47 156.59 572.56 238.73 597.36 228.99 554.85 129.47 575.72 121.12 717.91 182.02"/>
      </g>
    </g>
  </g>
</svg>