<?xml version="1.0" encoding="UTF-8"?>
<svg id="Layer_2" data-name="Layer 2" xmlns="http://www.w3.org/2000/svg" viewBox="0 0 526.32 82.36">
  <defs>
    <style>
      .cls-1 {
        fill: #231916;
      }
    </style>
  </defs>
  <g id="Layer_1-2" data-name="Layer 1">
    <g>
      <polygon class="cls-1" points="509.67 32.95 512.58 26.15 479.91 12.16 493.14 6.86 490.4 0 470.3 8.04 457.76 2.67 454.84 9.47 460.6 11.93 442.46 19.19 445.2 26.05 452.76 23.03 443.44 41.66 455.36 47.95 458.81 41.41 453.29 38.5 459.59 25.89 469.33 48.69 476.21 45.98 464.41 18.36 470.2 16.04 509.67 32.95"/>
      <g>
        <path class="cls-1" d="M21.99,76.25h-4.68l-2.23-5.11c-.38-.8-.83-1.34-1.34-1.61-.51-.28-1.33-.41-2.46-.41H3.97v7.14H0v-19.99h13.05c1.69,0,3.14.27,4.33.8,1.19.53,2.08,1.27,2.68,2.2.6.93.9,1.99.9,3.17,0,1.05-.21,1.99-.64,2.84-.43.85-1.02,1.54-1.78,2.07-.76.53-1.62.85-2.57.94v.4c.97.06,1.74.31,2.31.76.57.45,1.12,1.24,1.66,2.38l2.06,4.43ZM12.79,66.34c1.37,0,2.41-.31,3.13-.93.71-.62,1.07-1.45,1.07-2.5s-.36-1.9-1.07-2.51c-.71-.61-1.76-.91-3.13-.91H3.8v6.85h8.99Z"/>
        <path class="cls-1" d="M33.19,73.34h4.8v2.91h-13.73v-2.91h5.54v-6.85c0-.7-.15-1.2-.44-1.5-.3-.29-.79-.44-1.47-.44-.65,0-1.26.12-1.83.37v-2.97c.88-.34,1.86-.51,2.94-.51,1.48,0,2.56.3,3.21.91.66.61.98,1.57.98,2.88v8.11ZM29.33,58.69c-.4-.36-.6-.83-.6-1.4s.2-1.04.6-1.4c.4-.36.94-.54,1.63-.54s1.2.18,1.6.54c.4.36.6.83.6,1.4s-.2,1.04-.6,1.4c-.4.36-.93.54-1.6.54s-1.23-.18-1.63-.54Z"/>
        <path class="cls-1" d="M43.94,75.59c-1.46-.67-2.56-1.57-3.31-2.71-.75-1.14-1.13-2.43-1.13-3.86s.38-2.72,1.13-3.87c.75-1.15,1.86-2.06,3.31-2.73,1.46-.67,3.2-1,5.24-1,1.85,0,3.47.28,4.87.83,1.4.55,2.5,1.31,3.31,2.28s1.3,2.08,1.47,3.31h-3.54c-.21-1.01-.84-1.86-1.88-2.54-1.05-.68-2.46-1.03-4.23-1.03-1.29,0-2.41.21-3.34.63-.93.42-1.64.99-2.11,1.71-.48.72-.71,1.52-.71,2.4s.24,1.68.71,2.4c.48.72,1.18,1.29,2.11,1.71.93.42,2.05.63,3.34.63,1.77,0,3.18-.34,4.23-1.03,1.05-.69,1.67-1.53,1.88-2.54h3.54c-.17,1.24-.66,2.34-1.47,3.3-.81.96-1.91,1.72-3.31,2.27-1.4.55-3.02.83-4.87.83-2.04,0-3.78-.33-5.24-1Z"/>
        <path class="cls-1" d="M80.61,70.2h-16.05c.27,1.14.94,2.06,2.03,2.74,1.09.69,2.53,1.03,4.34,1.03,2.82,0,4.8-.78,5.94-2.34h3.46c-.3.8-.82,1.58-1.56,2.33-.73.75-1.76,1.38-3.08,1.88-1.32.5-2.94.76-4.84.76-2.06,0-3.82-.33-5.28-1-1.47-.67-2.57-1.57-3.33-2.71-.75-1.14-1.13-2.43-1.13-3.86s.38-2.72,1.14-3.87c.76-1.15,1.87-2.06,3.34-2.73,1.47-.67,3.24-1,5.31-1s3.84.33,5.31,1c1.47.67,2.57,1.58,3.33,2.74.75,1.16,1.13,2.46,1.13,3.88,0,.3-.02.68-.06,1.14ZM66.53,65.14c-1.09.7-1.75,1.65-2,2.83h12.71c-.25-1.18-.91-2.12-2-2.83-1.09-.7-2.53-1.06-4.34-1.06s-3.28.35-4.37,1.06Z"/>
        <path class="cls-1" d="M107.28,68.8v-2.68h14.31v10.14h-3.51l.71-4.83h-.4c-.63,1.39-1.75,2.6-3.35,3.63-1.61,1.03-3.77,1.54-6.5,1.54-2.47,0-4.63-.45-6.45-1.36-1.83-.9-3.23-2.14-4.21-3.7-.98-1.56-1.47-3.32-1.47-5.28s.5-3.73,1.5-5.3c1-1.57,2.47-2.8,4.4-3.7s4.24-1.34,6.92-1.34,4.76.37,6.58,1.1c1.82.73,3.25,1.72,4.28,2.96s1.73,2.64,2.07,4.2h-3.97c-.48-1.49-1.46-2.69-2.96-3.61-1.5-.92-3.5-1.38-6.01-1.38-1.87,0-3.47.31-4.81.93-1.34.62-2.36,1.46-3.04,2.53-.69,1.07-1.03,2.27-1.03,3.63s.34,2.63,1.03,3.73c.69,1.09,1.7,1.95,3.06,2.57,1.35.62,2.97.93,4.85.93,2.32,0,4.2-.46,5.62-1.37,1.43-.91,2.39-2.02,2.88-3.31h-10.51Z"/>
        <path class="cls-1" d="M126.08,76.25v-14.45h3.51l-.49,4.05h.43c.38-1.35,1.12-2.43,2.23-3.23,1.1-.8,2.52-1.2,4.25-1.2,2.36,0,4.17.63,5.43,1.9,1.26,1.27,1.88,3.1,1.88,5.5v.54h-3.57v-.26c0-1.43-.44-2.56-1.33-3.38-.89-.83-2.14-1.24-3.75-1.24s-2.87.45-3.75,1.36c-.89.9-1.33,2.22-1.33,3.96v6.45h-3.51Z"/>
        <path class="cls-1" d="M147.62,75.42c-1.09-.78-1.63-1.84-1.63-3.17s.54-2.39,1.63-3.17c1.08-.78,2.78-1.17,5.08-1.17,1.75,0,3.21.17,4.37.5s2.29.81,3.4,1.44v-1.26c0-1.33-.49-2.39-1.46-3.18s-2.4-1.19-4.28-1.19c-1.71,0-3.03.28-3.96.84-.92.56-1.49,1.25-1.7,2.07h-3.51c.21-1.66,1.08-3.02,2.6-4.1,1.52-1.08,3.72-1.61,6.6-1.61,3.05,0,5.34.65,6.88,1.96s2.31,3.08,2.31,5.33v3.71c0,.84.38,1.26,1.14,1.26.3,0,.6-.04.88-.11v2.77c-.51.17-1.08.26-1.71.26-1.05,0-1.85-.25-2.41-.74-.56-.5-.84-1.16-.84-2v-.14h-.43v.03c0,.46-.3.9-.91,1.34-.61.44-1.51.8-2.71,1.08-1.2.29-2.62.43-4.25.43-2.3,0-4-.39-5.08-1.17ZM160.47,72.51v-.91c-1.01-.46-2.01-.81-3-1.06-.99-.25-2.16-.37-3.51-.37-1.66,0-2.81.17-3.46.51-.65.34-.97.82-.97,1.43s.32,1.11.97,1.46c.65.34,1.8.51,3.46.51,2.46,0,4.62-.52,6.51-1.57Z"/>
        <path class="cls-1" d="M168.57,76.25v-14.45h3.51l-.54,4.45h.43c.38-1.48,1.19-2.66,2.41-3.53s2.83-1.3,4.81-1.3c2.53,0,4.52.73,5.95,2.18,1.44,1.46,2.16,3.47,2.16,6.04v6.6h-3.51v-5.83c0-1.94-.51-3.43-1.53-4.47-1.02-1.04-2.46-1.56-4.33-1.56s-3.28.52-4.31,1.57-1.54,2.53-1.54,4.45v5.83h-3.51Z"/>
        <path class="cls-1" d="M192.34,75.42c-1.09-.78-1.63-1.84-1.63-3.17s.54-2.39,1.63-3.17c1.08-.78,2.78-1.17,5.08-1.17,1.75,0,3.21.17,4.37.5s2.29.81,3.4,1.44v-1.26c0-1.33-.49-2.39-1.46-3.18s-2.4-1.19-4.28-1.19c-1.71,0-3.03.28-3.96.84-.92.56-1.49,1.25-1.7,2.07h-3.51c.21-1.66,1.08-3.02,2.6-4.1,1.52-1.08,3.72-1.61,6.6-1.61,3.05,0,5.34.65,6.88,1.96s2.31,3.08,2.31,5.33v3.71c0,.84.38,1.26,1.14,1.26.3,0,.6-.04.88-.11v2.77c-.51.17-1.08.26-1.71.26-1.05,0-1.85-.25-2.41-.74-.56-.5-.84-1.16-.84-2v-.14h-.43v.03c0,.46-.3.9-.91,1.34-.61.44-1.51.8-2.71,1.08-1.2.29-2.62.43-4.25.43-2.3,0-4-.39-5.08-1.17ZM205.19,72.51v-.91c-1.01-.46-2.01-.81-3-1.06-.99-.25-2.16-.37-3.51-.37-1.66,0-2.81.17-3.46.51-.65.34-.97.82-.97,1.43s.32,1.11.97,1.46c.65.34,1.8.51,3.46.51,2.46,0,4.62-.52,6.51-1.57Z"/>
        <path class="cls-1" d="M213.29,76.25v-14.45h3.51l-.49,4.05h.43c.38-1.35,1.12-2.43,2.23-3.23,1.1-.8,2.52-1.2,4.25-1.2,2.36,0,4.17.63,5.43,1.9,1.26,1.27,1.88,3.1,1.88,5.5v.54h-3.57v-.26c0-1.43-.44-2.56-1.33-3.38-.89-.83-2.14-1.24-3.75-1.24s-2.87.45-3.75,1.36c-.89.9-1.33,2.22-1.33,3.96v6.45h-3.51Z"/>
        <path class="cls-1" d="M246.51,61.8h4.11l-7.94,15.05c-1.05,2-2.15,3.42-3.3,4.25-1.15.84-2.57,1.26-4.27,1.26-.51,0-.97-.03-1.37-.1-.4-.07-.83-.19-1.29-.36v-2.94c.72.29,1.47.43,2.23.43,1.03,0,1.86-.2,2.48-.6.63-.4,1.22-1.08,1.77-2.03l.14-.26-7.77-14.71h4.11l4.65,9.54c.44,1.03.66,1.88.66,2.54v.06h.43v-.06c0-.72.21-1.57.63-2.54l4.71-9.54Z"/>
        <path class="cls-1" d="M287.36,76.25h-4.2l-1.77-3.68h-12.59l-1.77,3.68h-4.2l9.94-19.99h4.65l9.94,19.99ZM270.32,69.45h9.57l-3.57-7.37c-.67-1.43-1-2.56-1-3.4v-.06h-.43v.06c0,.84-.33,1.97-1,3.4l-3.57,7.37Z"/>
        <path class="cls-1" d="M312.27,76.25h-4.68l-2.23-5.11c-.38-.8-.83-1.34-1.34-1.61-.51-.28-1.33-.41-2.46-.41h-7.31v7.14h-3.97v-19.99h13.05c1.69,0,3.14.27,4.33.8,1.19.53,2.08,1.27,2.68,2.2s.9,1.99.9,3.17c0,1.05-.21,1.99-.64,2.84-.43.85-1.02,1.54-1.79,2.07-.76.53-1.62.85-2.57.94v.4c.97.06,1.74.31,2.31.76.57.45,1.12,1.24,1.66,2.38l2.06,4.43ZM303.08,66.34c1.37,0,2.41-.31,3.13-.93.71-.62,1.07-1.45,1.07-2.5s-.36-1.9-1.07-2.51c-.71-.61-1.76-.91-3.13-.91h-8.99v6.85h8.99Z"/>
        <path class="cls-1" d="M326.28,76.25h-3.97v-16.65h-8.65v-3.34h21.27v3.34h-8.65v16.65Z"/>
        <path class="cls-1" d="M340.1,74.59c-1.87-1.33-2.8-3.14-2.8-5.42v-.4h4v.31c0,2.97,2.57,4.45,7.71,4.45,2.91,0,4.92-.27,6.03-.81,1.1-.54,1.66-1.3,1.66-2.27,0-.84-.36-1.47-1.07-1.9s-1.6-.71-2.67-.86c-1.07-.14-2.53-.26-4.4-.36-2.38-.11-4.31-.29-5.78-.53-1.48-.24-2.73-.75-3.77-1.53-1.04-.78-1.56-1.94-1.56-3.48,0-3.92,3.85-5.88,11.56-5.88,4,0,6.92.65,8.78,1.94,1.86,1.29,2.78,3.04,2.78,5.23v.23h-4.03v-.23c0-1.24-.59-2.23-1.77-2.98-1.18-.75-3.1-1.13-5.77-1.13-2.82,0-4.78.27-5.9.81-1.11.54-1.67,1.27-1.67,2.18,0,.72.33,1.27,1,1.64.67.37,1.5.61,2.5.73,1,.11,2.39.21,4.18.29,2.44.09,4.43.27,5.97.51,1.54.25,2.87.79,3.97,1.61,1.1.83,1.66,2.06,1.66,3.7,0,1.9-.9,3.4-2.68,4.5s-4.8,1.64-9.02,1.64-7.04-.67-8.91-2Z"/>
        <path class="cls-1" d="M382.73,75.25c-1.95-.89-3.43-2.13-4.43-3.7-1-1.57-1.5-3.34-1.5-5.3s.5-3.73,1.5-5.3c1-1.57,2.47-2.8,4.43-3.7s4.3-1.34,7.04-1.34c2.55,0,4.75.36,6.6,1.08s3.29,1.7,4.33,2.94c1.04,1.24,1.71,2.65,2.01,4.23h-3.97c-.36-1.41-1.29-2.59-2.77-3.54-1.49-.95-3.55-1.43-6.2-1.43-1.9,0-3.53.31-4.88.93-1.35.62-2.38,1.46-3.07,2.53-.7,1.07-1.04,2.27-1.04,3.6s.35,2.53,1.04,3.6c.69,1.07,1.72,1.91,3.07,2.53,1.35.62,2.98.93,4.88.93,2.65,0,4.71-.48,6.2-1.43,1.48-.95,2.41-2.13,2.77-3.54h3.97c-.44,2.47-1.74,4.47-3.91,5.98-2.17,1.51-5.18,2.27-9.02,2.27-2.74,0-5.09-.45-7.04-1.34Z"/>
        <path class="cls-1" d="M426.1,56.26v3.23h-15.5v5.14h13.51v2.94h-13.51v5.45h15.5v3.23h-19.47v-19.99h19.47Z"/>
        <path class="cls-1" d="M430.5,76.25v-19.99h6.2l12.96,17.62h.43c-.21-.8-.36-1.53-.46-2.2-.09-.67-.14-1.49-.14-2.46v-12.96h3.83v19.99h-6.2l-12.99-17.62h-.4c.21.8.36,1.53.46,2.2.09.67.14,1.48.14,2.46v12.96h-3.83Z"/>
        <path class="cls-1" d="M468.86,76.25h-3.97v-16.65h-8.65v-3.34h21.27v3.34h-8.65v16.65Z"/>
        <path class="cls-1" d="M499.93,56.26v3.23h-15.5v5.14h13.51v2.94h-13.51v5.45h15.5v3.23h-19.47v-19.99h19.47Z"/>
        <path class="cls-1" d="M526.32,76.25h-4.68l-2.23-5.11c-.38-.8-.83-1.34-1.34-1.61-.51-.28-1.33-.41-2.46-.41h-7.31v7.14h-3.97v-19.99h13.05c1.69,0,3.14.27,4.33.8,1.19.53,2.08,1.27,2.68,2.2s.9,1.99.9,3.17c0,1.05-.21,1.99-.64,2.84-.43.85-1.02,1.54-1.79,2.07-.76.53-1.62.85-2.57.94v.4c.97.06,1.74.31,2.31.76.57.45,1.12,1.24,1.66,2.38l2.06,4.43ZM517.13,66.34c1.37,0,2.41-.31,3.13-.93.71-.62,1.07-1.45,1.07-2.5s-.36-1.9-1.07-2.51c-.71-.61-1.76-.91-3.13-.91h-8.99v6.85h8.99Z"/>
      </g>
    </g>
  </g>
</svg>