<?xml version="1.0" encoding="UTF-8"?>
<svg xmlns="http://www.w3.org/2000/svg" viewBox="0 0 637.8 81.85">
  <defs>
    <style>
      .cls-1 {
        fill: none;
      }

      .cls-2 {
        isolation: isolate;
      }

      .cls-3, .cls-4 {
        fill: #231916;
      }

      .cls-4 {
        mix-blend-mode: multiply;
      }
    </style>
  </defs>
  <g class="cls-2">
    <g id="Layer_2" data-name="Layer 2">
      <g id="_ロゴデータ" data-name="ロゴデータ">
        <g>
          <rect class="cls-1" width="106.3" height="81.84"/>
          <rect class="cls-1" x="106.3" width="106.3" height="81.84"/>
          <rect class="cls-1" x="212.6" y="0" width="106.3" height="81.84"/>
          <rect class="cls-1" x="318.9" width="106.3" height="81.84"/>
          <rect class="cls-1" x="425.2" width="106.3" height="81.84"/>
          <rect class="cls-1" x="531.5" width="106.3" height="81.84"/>
          <g>
            <path class="cls-4" d="M422,62.09c-12.61-6.03-23.9-14.93-31.89-27.99,11.41.05,22.09.08,28.12.23.75,0,1.13-.38,1.13-1.03.09-2.16.09-5.36,0-7.53,0-.66-.38-1.03-1.13-.94-8.36.28-25.82.47-41.52.56.02-1.25.03-1.94.03-3.2v-13.73c0-.85.09-1.79.28-3.1.09-.66-.28-1.03-.94-1.13-1.98-.19-5.46-.19-8-.19-.75,0-1.01.31-.94,1.03.12,1.27.19,2.45.19,3.39v13.73c0,1.25.01,1.94.03,3.2-16.06,0-28.64.19-42.26-.75-.66-.09-1.03.28-1.03.94-.09,2.16,0,6.11.19,8.28.09.66.47,1.03,1.22.94,9.55-.59,18.34-.72,28.25-.74-8.45,12.25-19.36,23.29-32.3,29.72-.56.28-.56.56-.09.94,3.29,2.82,4.52,4.42,5.46,5.46.85.85,2.14.94,2.92.38,15.63-11.38,26.33-22.96,34.29-36.5h3.5c.02,1.22.03,3.01.03,4.23,0,11.38-.09,27.19-.28,38.38,0,.75.28,1.13,1.03,1.13,2.07.19,5.55.19,7.81,0,.66,0,.94-.38.94-1.03-.28-11.29-.38-27.28-.47-38.76,0-1.13,0-2.82,0-3.95h3.76c8.6,16.55,20.67,27.79,33.77,35.28.85.47,1.69.47,2.45-.19,1.41-1.22,2.26-2.82,5.64-6.02.38-.47.38-.75-.19-1.03Z"/>
            <path class="cls-4" d="M390.03,15.64c3.82,1.49,7.4,3.13,11.3,5.46.67.36,1.17.27,1.63-.24,1.22-1.43,2.36-3.14,3.41-5.02.36-.67.19-1.12-.4-1.53-4.09-2.1-8.06-3.83-11.91-5.2-.57-.2-1.15-.06-1.56.53-1.09,1.46-2.15,3.12-2.93,4.72-.33.54-.16.99.46,1.27Z"/>
          </g>
          <path class="cls-3" d="M525.39,45.94c0-.75-.38-1.03-1.13-1.03h-1.61c0-6.24,0-10.18,0-15.73,0-2.73.19-6.4.19-8.65.09-.66-.28-1.03-.94-1.13-1.11-.05-2.48-.07-3.85-.07h-35.47c.01-3.69.19-7.11.28-10.1.09-1.32.19-2.35.47-3.76.09-.66-.19-1.03-.85-1.13-3.01-.28-6.3-.28-8.94-.19-.66,0-.94.38-.94,1.03.19,1.41.28,2.73.28,4.14.09,2.99.18,6.32.27,10.01,0,0-34.56,0-34.56,0-1.33,0-2.67.02-3.72.07-.75,0-1.03.38-1.03,1.03.09,2.26.12,5.9.18,8.94.1,5.45-.08,8.04-.08,14.72v10.25c0,.66.38,1.03,1.03,1.03,1.98.09,5.08.09,7.06,0,.66,0,1.03-.38,1.03-1.03v-.78h30.19c-.01,7.58-.1,15.37-.28,22.92,0,.66.38,1.03,1.03,1.13,2.16.19,5.55.19,7.81,0,.66,0,.94-.38.94-1.03-.09-7.64-.26-15.36-.35-23.01h41.85c.75,0,1.13-.28,1.13-1.03.09-1.98.09-4.61,0-6.58ZM443.07,27.98h30.2c.09,4.67.09,11.81.09,16.93h-30.29v-16.93ZM482.39,44.91v-16.93h31.14s0,10,0,16.93h-31.14Z"/>
          <g>
            <path class="cls-3" d="M611.48,50.45c3.45,2.65,4.7,3.4,5.93,4.24.98.67,1.23,1.53.82,2.58-1,2.45-2.31,5.31-3.79,8.11-4.09,6.25-7.71,9.39-17.43,10.25-5.83.51-9.42.36-14.15-.06-11.97-1.06-19.12-8.05-19.1-24.64.01-8.73,0-13.78-.19-20.65-.09-1.69-.09-3.48-.28-5.46,0-.66.28-1.03.94-1.03,3.01,0,5.83,0,8.84.28.66.09.94.47.85,1.13-.09.75-.19,1.51-.19,2.26-.19,1.03-.19,2.07-.28,3.2-.38,9.12-.15,12.64-.19,18.44-.09,13.33,3.96,16.92,13.1,17.37,3.6.18,5.3.38,9.98-.16,6.08-.7,8.3-2.62,10.76-7.44,1.18-2.32,2.56-5.53,3.52-8.19.16-.54.48-.65.85-.24Z"/>
            <path class="cls-3" d="M577.03,4.61c7.24,5.55,17.4,12.04,26.53,16.65.56.28.66.66.28,1.13-1.32,1.69-3.1,4.33-4.7,6.02-.85.75-1.69.85-2.54.28-8.94-4.99-18.44-11.48-25.59-17.12-.56-.47-.66-.94-.19-1.51,1.22-1.6,3.2-3.95,4.61-5.36.47-.47,1.03-.56,1.6-.09Z"/>
            <path class="cls-3" d="M615.28,27.78c5.67,7.53,11.83,14.72,19.42,21.74.47.38.46.77-.04,1.16-1.73,1.34-3.97,3.46-5.99,4.76-.95.49-1.75.38-2.48-.33-7.28-7.37-12.94-14.48-18.31-21.98-.4-.49-.33-1.08.16-1.48,1.55-1.3,3.95-3.07,5.73-4.22.6-.32,1.1-.24,1.52.34Z"/>
            <path class="cls-3" d="M534.53,60.51c-.47-.11-.55-.48-.26-.85,6.43-8.97,11.32-20.43,13.06-30.27.11-.66.49-.93,1.15-.82,2.16.33,5.43,1.26,7.76,1.98.96.3,1.04.94.62,1.8-.27.55-.59,1.36-.91,2.71-2.17,7.85-6.29,18.95-11.68,27.76-.59,1.02-1.44,1.28-2.47.88-1.3-.69-2.97-1.67-7.26-3.19Z"/>
          </g>
          <g>
            <path class="cls-3" d="M164.62,7.15c11.11,7.5,28.49,11.14,44.65,14.17.56.09.66.38.28.85-2.35,2.73-3.01,4.14-3.95,5.36-.66.66-1.48.75-2.35.66-6.41-.64-12.08-1.73-17.93-3.54-7.9-2.45-16.13-6.28-26.98-12.84-3.84,2.71-7.95,5.17-13,8.04-8.84,5.01-20.35,9.54-30.1,12.13-1.03.28-1.79,0-2.45-.85-.56-1.03-1.32-2.35-3.67-5.08-.38-.47-.28-.75.28-.85,17.97-3.95,37.79-13.06,48.61-23.13.47-.38.94-.47,1.51-.28,2.16.66,4.86,1.71,6.8,2.71.87.45.74,1.01-.09,1.51-.38.22-.63.38-.94.56-.28.17-.47.38-.66.56Z"/>
            <path class="cls-3" d="M204.8,71.83c0-.66-.38-1.03-1.03-1.03h-1.72v-10.35c0-.66-.38-1.03-1.03-1.03h-62.63c-.56,0-1.03.26-1.03.85v16.96c0,.66.38,1.03,1.03,1.03,2.07.09,5.08.09,7.06,0,.66,0,1.03-.38,1.03-1.03v-.78h57.29c.66,0,1.03-.38,1.03-1.03.03-1.39.04-2.45,0-3.57ZM192.92,65.06v5.74h-46.45v-5.74h46.45Z"/>
            <path class="cls-3" d="M194.94,29.2h-66.44c-.76,0-1.05.41-.97,1.05.22,1.74.31,3.08.4,4.95,1.03,20.71-4,26.71-16.68,36.65-.49.39-.4.72.2.92,3.99,1.33,5.14,2.25,6.27,3.17.89.72,1.99.4,3.32-.69,6.97-5.73,9.1-8.82,12.35-15.45.69-1.42,1.27-3.2,1.73-5.25h51.72v.79c0,.66.38,1.03,1.03,1.03,0,.09,7.06.09,7.06,0,.66,0,1.03-.38,1.03-1.03v-25.09c0-.66-.38-1.03-1.03-1.03ZM186.85,34.85v4.2h-50.14c.03-1.39.03-2.79.02-4.2h50.12ZM136.46,44.69h50.39v4.2h-50.78c.16-1.35.29-2.75.39-4.2Z"/>
            <path class="cls-3" d="M161.29,27.28c-3.53-2.27-4.58-2.81-8.31-4.52-.6-.31-.75-.77-.39-1.29.87-1.55,2.03-3.15,3.19-4.54.44-.56,1.03-.67,1.58-.44,3.77,1.58,4.86,2.12,8.93,4.29.51.27.71.9.31,1.55-1.15,1.81-2.39,3.46-3.69,4.81-.49.48-.99.56-1.64.15Z"/>
          </g>
          <g>
            <path class="cls-4" d="M103.46,65.66c-11.54-4.37-22.73-12.51-31.53-22.19,11.35.03,21.96.1,27.97.18.75,0,1.13-.28,1.13-1.03.09-2.07.09-5.08,0-7.15,0-.66-.38-1.03-1.03-.94-4.75.16-12.35.28-20.89.38,3.65-5.06,8.32-12.01,10.5-15.53.52-.88,1.01-1.6,1.48-2.25.3-.41.48-.63.8-.98.71-.79.69-1.26-.18-1.69-2.22-.92-5.19-1.98-7.29-2.53-.57-.16-1.03.05-1.29.54-2.92,6-10.46,16.77-15.23,22.55-3.39.03-6.79.05-10.12.07h-.02c0-.69.02-1.38.02-2.07V9.22c0-.85.09-2.07.19-3.67.09-.66-.19-1.03-.85-1.13-2.07-.19-5.27-.28-7.81-.19-.66,0-.94.38-.94,1.03.09,1.6.19,2.92.19,3.95v23.8c0,.69,0,1.38.02,2.07h-.02c-16.27,0-28.97.19-42.61-.75-.66-.09-1.03.28-1.03.94-.09,2.07,0,5.83.19,7.9.09.75.47,1.03,1.13,1.03,9.51-.6,18.41-.72,28.41-.75-7.97,10.23-19.53,20.03-30.86,24.83-.56.28-.66.56-.19.94,3.39,2.63,4.61,4.04,5.55,5.08.85.75,1.79.94,2.82.38,12.48-6.15,25.7-19.2,33.1-31.23h3.76c.02,1.07.03,2.13.02,3.2-.09,8.18-.19,18.91-.38,29.82,0,.66.38,1.03,1.03,1.13,2.07.09,5.36.09,7.53,0,.66,0,1.03-.38,1.03-1.13-.28-10.91-.38-21.73-.47-29.91-.01-1.03,0-2.07,0-3.1h3.71c9.92,13.43,21.98,23.56,34.65,29.44.85.38,1.6.28,2.35-.28,1.41-1.32,2.26-2.92,5.36-6.02.47-.38.38-.75-.19-.94Z"/>
            <path class="cls-4" d="M29.11,30.81c.43.55.94.75,1.6.38,1.88-.94,3.77-2.21,5.8-3.71.57-.42.61-.97.19-1.51-4.74-6.04-7.28-8.93-12.71-14.13-.51-.48-1.03-.56-1.6-.28-1.88,1.13-3.95,2.45-5.55,3.76-.56.47-.56.94-.09,1.41,5.37,5.41,7.9,8.37,12.36,14.07Z"/>
          </g>
          <g>
            <path class="cls-4" d="M313.82,14.77c-.09-.66-.38-1.03-1.13-1.03-5.6.28-16.41.47-26.86.56,0-.74,0-1.42,0-1.97.03-2.03.1-3.48.23-5.17.03-.4.21-1,.38-1.6.16-.6-.19-1.03-.85-1.13-2.82-.28-6.02-.28-8.65-.19-.75,0-1.03.38-.94,1.03.09.75.15,1.2.19,2.07.04.82.12,2.71.19,4.99.02.63.04,1.29.05,1.98-3.62.09-18.48.09-21.97.09v-1.98c0-2.07.08-4.1.19-5.36.05-.61.2-1.08.38-1.6.15-.45.02-1.04-.85-1.13-2.62-.26-5.83-.38-8.47-.28-.75.09-1.03.38-.94,1.13.09.66.15,1.27.19,2.07.12,2.15.19,4.76.23,7.15-8.95,0-18.36-.19-26.76-.75-.66,0-1.03.28-1.03.94-.09,1.98,0,5.27.19,7.24.09.66.47,1.03,1.13.94,8.47-.47,17.67-.65,26.5-.66-.03,1.15-.07,2.11-.07,3.48,0,.66.38,1.03,1.03,1.13,2.07.19,5.27.19,7.34,0,.66,0,1.03-.38,1.03-1.03-.06-1.45-.08-2.48-.09-3.57h22c0,1.08-.03,2.01-.09,3.29,0,.75.38,1.13,1.03,1.13,2.16.19,5.36.19,7.53.09.66-.09,1.03-.47,1.03-1.13-.06-1.38-.08-2.34-.08-3.39,10.43,0,21.21.1,26.8.19.75,0,1.03-.38,1.13-1.03.09-1.88.09-4.61,0-6.49Z"/>
            <path class="cls-4" d="M311.2,53.2c-1.61-1.09-3.2-1.75-5.27-3.6-.52-.49-.94-.34-1.2.26-.8,1.9-1.39,3.31-2.65,5.06-2.99,4.16-6.05,6.71-11.68,9.21-12.95,5.75-30.16,7.24-45.97,5.35-7.79-.93-12.62-4.29-13.11-9.48-.38-4.09,1.88-8.54,6.47-11.1,7.69-4.3,16.82-7.13,27.11-8.84,9.16-1.53,20.62-2.33,32.27-2.32.54,0,.94-.38.88-.85-.29-2.47-.75-4.54-1.4-6.46-.22-.66-.44-.98-1.11-.93-5.29.37-9.36.52-13.38.56h-25.02c-9.78,0-18.91.19-29.26-.56-.66,0-1.03.28-1.03.94-.09,2.07,0,5.74.19,7.9.09.66.47.94,1.13.94,9.25-.59,19.47-.67,23.74-.66-3.44.87-7.28,2.05-10.45,3.2-3.13,1.14-6.21,2.48-8.85,3.95-13.43,7.48-13.52,19.33-8.07,25.09,4.98,5.26,14.28,7.36,23.8,7.93,15.97.96,32.18-1.15,45.1-6.38,6.4-2.59,10.13-5.13,14.15-9.38,2.14-2.27,3.33-4.18,4.39-6.74.62-1.5.33-2.28-.78-3.09Z"/>
          </g>
        </g>
      </g>
    </g>
  </g>
</svg>