<?xml version="1.0" encoding="UTF-8"?>
<svg id="Layer_2" data-name="Layer 2" xmlns="http://www.w3.org/2000/svg" viewBox="0 0 722.12 37.21">
  <defs>
    <style>
      .cls-1 {
        fill: #231916;
      }
    </style>
  </defs>
  <g id="_ロゴデータ" data-name="ロゴデータ">
    <g>
      <path class="cls-1" d="M30.28,28.79h-6.45l-3.07-7.04c-.52-1.1-1.14-1.84-1.85-2.22-.71-.38-1.84-.57-3.38-.57H5.47v9.83H0V1.26h17.97c2.33,0,4.32.37,5.96,1.1,1.64.73,2.87,1.74,3.7,3.03.83,1.29,1.24,2.74,1.24,4.37,0,1.44-.3,2.75-.89,3.91-.59,1.17-1.41,2.12-2.46,2.85-1.05.73-2.23,1.17-3.54,1.3v.55c1.34.08,2.4.43,3.19,1.04.79.62,1.55,1.71,2.28,3.28l2.83,6.1ZM17.62,15.14c1.89,0,3.32-.43,4.31-1.28.98-.85,1.47-2,1.47-3.44s-.49-2.62-1.47-3.46c-.98-.84-2.42-1.26-4.31-1.26H5.23v9.44h12.39Z"/>
      <path class="cls-1" d="M45.58,24.78h6.61v4.01h-18.92v-4.01h7.63v-9.44c0-.97-.2-1.66-.61-2.06-.41-.41-1.08-.61-2.03-.61-.89,0-1.73.17-2.52.51v-4.09c1.21-.47,2.56-.71,4.05-.71,2.05,0,3.52.42,4.42,1.26.9.84,1.36,2.16,1.36,3.97v11.17ZM40.27,4.6c-.55-.5-.83-1.14-.83-1.93s.28-1.43.83-1.93c.55-.5,1.3-.75,2.24-.75s1.65.25,2.2.75c.55.5.83,1.14.83,1.93s-.28,1.43-.83,1.93c-.55.5-1.29.75-2.2.75s-1.69-.25-2.24-.75Z"/>
      <path class="cls-1" d="M60.26,27.89c-2.01-.92-3.53-2.16-4.56-3.74-1.04-1.57-1.55-3.34-1.55-5.31s.52-3.74,1.55-5.33c1.04-1.59,2.56-2.84,4.56-3.76,2.01-.92,4.41-1.38,7.22-1.38,2.54,0,4.78.38,6.71,1.14,1.93.76,3.45,1.81,4.56,3.15,1.11,1.34,1.79,2.86,2.03,4.56h-4.88c-.29-1.39-1.15-2.56-2.6-3.5-1.44-.94-3.38-1.42-5.82-1.42-1.78,0-3.32.29-4.6.87-1.29.58-2.26,1.36-2.91,2.36-.66,1-.98,2.1-.98,3.3s.33,2.31.98,3.3c.66,1,1.63,1.78,2.91,2.36,1.28.58,2.82.87,4.6.87,2.44,0,4.38-.47,5.82-1.42,1.44-.94,2.31-2.11,2.6-3.5h4.88c-.24,1.7-.91,3.22-2.03,4.54-1.11,1.32-2.63,2.37-4.56,3.13s-4.16,1.14-6.71,1.14c-2.81,0-5.21-.46-7.22-1.38Z"/>
      <path class="cls-1" d="M110.63,20.45h-22.1c.37,1.57,1.3,2.83,2.79,3.78s3.49,1.42,5.98,1.42c3.88,0,6.61-1.07,8.18-3.23h4.76c-.42,1.1-1.13,2.17-2.14,3.21-1.01,1.04-2.43,1.9-4.25,2.6-1.82.69-4.04,1.04-6.67,1.04-2.83,0-5.26-.46-7.28-1.38s-3.55-2.16-4.58-3.74c-1.04-1.57-1.55-3.34-1.55-5.31s.52-3.74,1.57-5.33c1.05-1.59,2.58-2.84,4.6-3.76,2.02-.92,4.46-1.38,7.32-1.38s5.3.46,7.32,1.38c2.02.92,3.55,2.18,4.58,3.78,1.04,1.6,1.55,3.38,1.55,5.35,0,.42-.03.94-.08,1.57ZM91.24,13.49c-1.49.97-2.41,2.27-2.75,3.89h17.5c-.34-1.63-1.26-2.92-2.75-3.89-1.49-.97-3.49-1.46-5.98-1.46s-4.52.49-6.02,1.46Z"/>
      <path class="cls-1" d="M147.23,18.52v-3.7h19.71v13.96h-4.84l.98-6.65h-.55c-.87,1.91-2.41,3.58-4.62,5-2.22,1.42-5.2,2.12-8.95,2.12-3.41,0-6.37-.62-8.89-1.87-2.52-1.24-4.45-2.94-5.8-5.09-1.35-2.15-2.03-4.58-2.03-7.28s.69-5.13,2.06-7.3,3.4-3.86,6.06-5.09c2.66-1.23,5.84-1.85,9.54-1.85s6.56.5,9.07,1.51c2.5,1.01,4.47,2.37,5.9,4.07,1.43,1.7,2.38,3.63,2.85,5.78h-5.47c-.66-2.05-2.01-3.7-4.07-4.98-2.06-1.27-4.82-1.91-8.28-1.91-2.57,0-4.78.43-6.63,1.28-1.85.85-3.24,2.01-4.19,3.48-.94,1.47-1.42,3.13-1.42,5s.47,3.62,1.42,5.13c.94,1.51,2.35,2.69,4.21,3.54,1.86.85,4.09,1.28,6.69,1.28,3.2,0,5.78-.63,7.75-1.89,1.97-1.26,3.29-2.78,3.97-4.56h-14.47Z"/>
      <path class="cls-1" d="M172.99,28.79V8.89h4.84l-.67,5.58h.59c.52-1.86,1.55-3.34,3.07-4.44,1.52-1.1,3.47-1.65,5.86-1.65,3.25,0,5.74.87,7.47,2.62,1.73,1.74,2.6,4.27,2.6,7.57v.75h-4.92v-.35c0-1.97-.61-3.52-1.83-4.66s-2.94-1.71-5.17-1.71-3.95.62-5.17,1.87c-1.22,1.25-1.83,3.06-1.83,5.45v8.89h-4.84Z"/>
      <path class="cls-1" d="M202.54,27.65c-1.49-1.07-2.24-2.53-2.24-4.37s.75-3.29,2.24-4.37c1.49-1.07,3.83-1.61,7-1.61,2.41,0,4.42.23,6.02.69,1.6.46,3.16,1.12,4.68,1.99v-1.73c0-1.83-.67-3.3-2.01-4.39-1.34-1.09-3.3-1.63-5.9-1.63-2.36,0-4.18.39-5.45,1.16-1.27.77-2.05,1.72-2.34,2.85h-4.84c.29-2.28,1.48-4.16,3.58-5.64,2.1-1.48,5.13-2.22,9.08-2.22,4.2,0,7.35.9,9.48,2.69s3.19,4.24,3.19,7.33v5.11c0,1.15.52,1.73,1.57,1.73.42,0,.83-.05,1.22-.16v3.82c-.71.24-1.49.35-2.36.35-1.44,0-2.55-.34-3.32-1.02-.77-.68-1.16-1.6-1.16-2.75v-.2h-.59v.04c0,.63-.42,1.25-1.26,1.85-.84.6-2.08,1.1-3.74,1.49-1.65.39-3.61.59-5.86.59-3.17,0-5.51-.54-7-1.61ZM220.24,23.64v-1.26c-1.39-.63-2.77-1.11-4.13-1.46-1.36-.34-2.98-.51-4.84-.51-2.28,0-3.87.24-4.76.71-.89.47-1.34,1.13-1.34,1.97s.45,1.53,1.34,2.01c.89.47,2.48.71,4.76.71,3.38,0,6.37-.72,8.97-2.16Z"/>
      <path class="cls-1" d="M231.27,28.79V8.89h4.84l-.75,6.14h.59c.52-2.05,1.63-3.66,3.32-4.86,1.69-1.19,3.9-1.79,6.63-1.79,3.49,0,6.22,1,8.2,3.01,1.98,2.01,2.97,4.78,2.97,8.32v9.09h-4.84v-8.02c0-2.67-.7-4.73-2.1-6.16-1.4-1.43-3.39-2.14-5.96-2.14s-4.52.72-5.94,2.16c-1.42,1.44-2.12,3.49-2.12,6.14v8.02h-4.84Z"/>
      <path class="cls-1" d="M263.87,27.65c-1.49-1.07-2.24-2.53-2.24-4.37s.75-3.29,2.24-4.37c1.49-1.07,3.83-1.61,7-1.61,2.41,0,4.42.23,6.02.69,1.6.46,3.16,1.12,4.68,1.99v-1.73c0-1.83-.67-3.3-2.01-4.39-1.34-1.09-3.3-1.63-5.9-1.63-2.36,0-4.18.39-5.45,1.16-1.27.77-2.05,1.72-2.34,2.85h-4.84c.29-2.28,1.48-4.16,3.58-5.64,2.1-1.48,5.13-2.22,9.08-2.22,4.2,0,7.35.9,9.48,2.69s3.19,4.24,3.19,7.33v5.11c0,1.15.52,1.73,1.57,1.73.42,0,.83-.05,1.22-.16v3.82c-.71.24-1.49.35-2.36.35-1.44,0-2.55-.34-3.32-1.02-.77-.68-1.16-1.6-1.16-2.75v-.2h-.59v.04c0,.63-.42,1.25-1.26,1.85-.84.6-2.08,1.1-3.74,1.49-1.65.39-3.61.59-5.86.59-3.17,0-5.51-.54-7-1.61ZM281.57,23.64v-1.26c-1.39-.63-2.77-1.11-4.13-1.46-1.36-.34-2.98-.51-4.84-.51-2.28,0-3.87.24-4.76.71-.89.47-1.34,1.13-1.34,1.97s.45,1.53,1.34,2.01c.89.47,2.48.71,4.76.71,3.38,0,6.37-.72,8.97-2.16Z"/>
      <path class="cls-1" d="M292.59,28.79V8.89h4.84l-.67,5.58h.59c.52-1.86,1.55-3.34,3.07-4.44,1.52-1.1,3.47-1.65,5.86-1.65,3.25,0,5.74.87,7.47,2.62,1.73,1.74,2.6,4.27,2.6,7.57v.75h-4.92v-.35c0-1.97-.61-3.52-1.83-4.66s-2.94-1.71-5.17-1.71-3.95.62-5.17,1.87c-1.22,1.25-1.83,3.06-1.83,5.45v8.89h-4.84Z"/>
      <path class="cls-1" d="M338.21,8.89h5.66l-10.93,20.73c-1.44,2.75-2.96,4.71-4.54,5.86-1.59,1.15-3.55,1.73-5.88,1.73-.71,0-1.34-.05-1.89-.14-.55-.09-1.14-.26-1.77-.49v-4.05c1,.39,2.02.59,3.07.59,1.42,0,2.56-.27,3.42-.83s1.68-1.48,2.44-2.79l.2-.35-10.7-20.26h5.66l6.41,13.14c.6,1.42.9,2.58.9,3.5v.08h.59v-.08c0-1,.29-2.16.87-3.5l6.49-13.14Z"/>
      <path class="cls-1" d="M394.3,28.79h-5.78l-2.44-5.07h-17.34l-2.44,5.07h-5.78l13.69-27.53h6.41l13.69,27.53ZM370.82,19.43h13.18l-4.92-10.15c-.92-1.97-1.38-3.53-1.38-4.68v-.08h-.59v.08c0,1.15-.46,2.71-1.38,4.68l-4.92,10.15Z"/>
      <path class="cls-1" d="M428.46,28.79h-6.45l-3.07-7.04c-.52-1.1-1.14-1.84-1.85-2.22-.71-.38-1.84-.57-3.38-.57h-10.07v9.83h-5.47V1.26h17.97c2.33,0,4.32.37,5.96,1.1,1.64.73,2.87,1.74,3.7,3.03.83,1.29,1.24,2.74,1.24,4.37,0,1.44-.3,2.75-.89,3.91-.59,1.17-1.41,2.12-2.46,2.85-1.05.73-2.23,1.17-3.54,1.3v.55c1.34.08,2.4.43,3.19,1.04.79.62,1.55,1.71,2.28,3.28l2.83,6.1ZM415.8,15.14c1.89,0,3.32-.43,4.31-1.28.98-.85,1.47-2,1.47-3.44s-.49-2.62-1.47-3.46c-.98-.84-2.42-1.26-4.31-1.26h-12.39v9.44h12.39Z"/>
      <path class="cls-1" d="M447.61,28.79h-5.47V5.86h-11.92V1.26h29.3v4.6h-11.92v22.93Z"/>
      <path class="cls-1" d="M466.5,26.51c-2.57-1.83-3.85-4.33-3.85-7.47v-.55h5.51v.43c0,4.09,3.54,6.14,10.62,6.14,4.01,0,6.78-.37,8.3-1.12,1.52-.75,2.28-1.79,2.28-3.13,0-1.15-.49-2.03-1.47-2.62-.98-.59-2.21-.98-3.68-1.18-1.47-.2-3.49-.36-6.06-.49-3.28-.16-5.93-.4-7.96-.73-2.03-.33-3.76-1.03-5.19-2.1-1.43-1.07-2.14-2.67-2.14-4.8,0-5.4,5.31-8.1,15.93-8.1,5.51,0,9.54.89,12.09,2.67,2.56,1.78,3.83,4.18,3.83,7.2v.31h-5.55v-.31c0-1.7-.81-3.07-2.44-4.11-1.63-1.04-4.27-1.55-7.94-1.55-3.88,0-6.59.37-8.12,1.12-1.53.75-2.3,1.75-2.3,3.01,0,1,.46,1.75,1.38,2.26.92.51,2.06.85,3.44,1s3.3.29,5.76.39c3.36.13,6.1.37,8.22.71,2.12.34,3.95,1.08,5.47,2.22,1.52,1.14,2.28,2.84,2.28,5.09,0,2.62-1.23,4.69-3.7,6.19-2.46,1.51-6.61,2.26-12.43,2.26s-9.7-.92-12.27-2.75Z"/>
      <path class="cls-1" d="M525.06,27.41c-2.69-1.23-4.72-2.93-6.1-5.09-1.38-2.16-2.06-4.6-2.06-7.3s.69-5.13,2.06-7.3,3.41-3.86,6.1-5.09c2.69-1.23,5.92-1.85,9.7-1.85,3.51,0,6.54.5,9.08,1.49,2.54,1,4.53,2.35,5.96,4.05,1.43,1.71,2.35,3.65,2.77,5.82h-5.47c-.5-1.94-1.77-3.57-3.81-4.88-2.05-1.31-4.89-1.97-8.53-1.97-2.62,0-4.86.43-6.73,1.28-1.86.85-3.27,2.01-4.23,3.48-.96,1.47-1.44,3.12-1.44,4.96s.48,3.49,1.44,4.96c.96,1.47,2.37,2.63,4.23,3.48,1.86.85,4.1,1.28,6.73,1.28,3.64,0,6.49-.65,8.53-1.97,2.04-1.31,3.32-2.94,3.81-4.88h5.47c-.6,3.41-2.4,6.16-5.39,8.24s-7.13,3.13-12.43,3.13c-3.78,0-7.01-.62-9.7-1.85Z"/>
      <path class="cls-1" d="M584.66,1.26v4.44h-21.36v7.08h18.6v4.05h-18.6v7.51h21.36v4.44h-26.82V1.26h26.82Z"/>
      <path class="cls-1" d="M590.58,28.79V1.26h8.54l17.86,24.27h.59c-.29-1.1-.5-2.11-.63-3.03-.13-.92-.2-2.04-.2-3.38V1.26h5.27v27.53h-8.53l-17.9-24.27h-.55c.29,1.1.5,2.11.63,3.03.13.92.2,2.05.2,3.38v17.86h-5.27Z"/>
      <path class="cls-1" d="M643.27,28.79h-5.47V5.86h-11.92V1.26h29.3v4.6h-11.92v22.93Z"/>
      <path class="cls-1" d="M685.91,1.26v4.44h-21.36v7.08h18.6v4.05h-18.6v7.51h21.36v4.44h-26.82V1.26h26.82Z"/>
      <path class="cls-1" d="M722.12,28.79h-6.45l-3.07-7.04c-.52-1.1-1.14-1.84-1.85-2.22-.71-.38-1.84-.57-3.38-.57h-10.07v9.83h-5.47V1.26h17.97c2.33,0,4.32.37,5.96,1.1,1.64.73,2.87,1.74,3.7,3.03.83,1.29,1.24,2.74,1.24,4.37,0,1.44-.3,2.75-.89,3.91-.59,1.17-1.41,2.12-2.46,2.85-1.05.73-2.23,1.17-3.54,1.3v.55c1.34.08,2.4.43,3.19,1.04.79.62,1.55,1.71,2.28,3.28l2.83,6.1ZM709.46,15.14c1.89,0,3.32-.43,4.31-1.28.98-.85,1.47-2,1.47-3.44s-.49-2.62-1.47-3.46c-.98-.84-2.42-1.26-4.31-1.26h-12.39v9.44h12.39Z"/>
    </g>
  </g>
</svg>